M48
;GenerationSoftware,Autodesk,EAGLE,9.6.2*%
;CreationDate,2023-10-17T16:28:36Z*%
FMAT,2
ICI,OFF
METRIC,TZ,000.000
T6C0.305
T5C0.400
T4C0.650
T3C0.750
T2C1.016
T1C3.302
%
G90
M71
T1
X100584Y2540
X100584Y87630
X80264Y158750
X2540Y2540
X22860Y2540
X2540Y73660
X22860Y73660
X100584Y158750
X2540Y87630
X22860Y87630
X2540Y158750
X28448Y2540
X48768Y2540
X28448Y73660
X48768Y73660
X22860Y158750
X54356Y87630
X74676Y87630
X54356Y158750
X54356Y2540
X74676Y2540
X54356Y73660
X74676Y73660
X74676Y158750
X28448Y87630
X48768Y87630
X28448Y158750
X80264Y2540
X48768Y158750
X80264Y73660
X100584Y73660
X80264Y87630
T2
X27178Y96520
X27178Y99060
X27178Y101600
X27178Y104140
X27178Y106680
X27178Y109220
X27178Y111760
X27178Y114300
X27178Y116840
X27178Y119380
X50038Y91440
X50038Y93980
X50038Y96520
X50038Y99060
X101854Y99060
X53086Y91440
X53086Y93980
X53086Y96520
X53086Y99060
X53086Y101600
X53086Y104140
X101854Y96520
X53086Y109220
X53086Y111760
X53086Y114300
X53086Y116840
X53086Y119380
X75946Y91440
X75946Y93980
X75946Y96520
X75946Y99060
X78994Y91440
X78994Y93980
X78994Y96520
X78994Y99060
X78994Y101600
X78994Y104140
X1270Y6350
X1270Y8890
X1270Y11430
X1270Y13970
X1270Y16510
X1270Y19050
X1270Y21590
X1270Y24130
X1270Y26670
X1270Y29210
X1270Y31750
X1270Y34290
X24130Y6350
X24130Y8890
X24130Y11430
X24130Y13970
X78994Y106680
X78994Y109220
X78994Y111760
X78994Y114300
X27178Y6350
X27178Y8890
X27178Y11430
X27178Y13970
X27178Y16510
X27178Y19050
X27178Y21590
X27178Y24130
X27178Y26670
X27178Y29210
X27178Y31750
X27178Y34290
X50038Y6350
X50038Y8890
X50038Y11430
X50038Y13970
X78994Y116840
X78994Y119380
X101854Y91440
X101854Y93980
X53086Y6350
X53086Y8890
X53086Y11430
X53086Y13970
X53086Y16510
X53086Y19050
X53086Y21590
X53086Y24130
X53086Y26670
X53086Y29210
X53086Y31750
X53086Y34290
X75946Y6350
X75946Y8890
X75946Y11430
X75946Y13970
X78994Y6350
X78994Y8890
X78994Y11430
X78994Y13970
X78994Y16510
X78994Y19050
X78994Y21590
X78994Y24130
X78994Y26670
X78994Y29210
X78994Y31750
X78994Y34290
X101854Y6350
X101854Y8890
X101854Y11430
X101854Y13970
X1270Y91440
X1270Y93980
X1270Y96520
X1270Y99060
X1270Y101600
X1270Y104140
X1270Y106680
X1270Y109220
X1270Y111760
X1270Y114300
X1270Y116840
X1270Y119380
X24130Y91440
X24130Y93980
X24130Y96520
X24130Y99060
X53086Y106680
X27178Y91440
X27178Y93980
T3
X22530Y36525
X22530Y28025
X48438Y36525
X48438Y28025
X74346Y36525
X74346Y28025
X100254Y36525
X100254Y28025
X22530Y121615
X22530Y113115
X48438Y121615
X48438Y113115
X74346Y121615
X74346Y113115
X100254Y121615
X100254Y113115
T4
X9810Y4905
X15590Y4905
X35718Y4905
X41498Y4905
X61626Y4905
X67406Y4905
X87534Y4905
X93314Y4905
X9810Y89995
X15590Y89995
X35718Y89995
X41498Y89995
X61626Y89995
X67406Y89995
X87534Y89995
X93314Y89995
T5
X8382Y1255
X17018Y1255
X17018Y5435
X8382Y5435
X34290Y1255
X42926Y1255
X42926Y5435
X34290Y5435
X60198Y1255
X68834Y1255
X68834Y5435
X60198Y5435
X17018Y90525
X86106Y86345
X94742Y86345
X94742Y90525
X86106Y90525
X8382Y90525
X34290Y86345
X42926Y86345
X86106Y1255
X34290Y90525
X94742Y1255
X94742Y5435
X86106Y5435
X8382Y86345
X17018Y86345
X60198Y86345
X68834Y86345
X68834Y90525
X60198Y90525
X42926Y90525
T6
X40640Y75565
X42799Y77597
X44069Y77597
X45339Y77597
X42164Y71374
X42164Y72644
X42164Y73914
X42164Y75184
X42926Y76200
X44196Y76200
X45466Y76200
X43053Y70485
X44323Y70485
X40640Y70485
X39243Y70485
X37973Y70485
X36576Y70485
X36576Y71755
X36576Y73025
X36576Y74295
X36576Y75565
X36576Y76835
X34417Y77597
X33147Y77597
X31877Y77597
X35052Y71374
X35052Y72644
X35052Y73914
X35052Y75184
X34290Y76200
X33020Y76200
X31750Y76200
X29591Y77470
X34163Y70485
X32893Y70485
X47625Y77470
X46736Y76581
X40640Y76835
X30480Y76581
X29718Y67310
X29718Y66040
X29718Y68580
X30988Y69850
X47498Y57785
X47498Y64770
X38608Y49530
X29718Y45720
X47498Y45085
X34798Y81915
X42418Y81915
X37338Y81915
X39878Y81915
X50038Y77470
X50038Y71120
X27178Y71120
X27178Y77470
X27178Y64770
X50038Y64770
X26543Y80264
X50673Y80264
X26543Y4445
X50673Y4445
X42418Y8890
X36068Y8890
X34798Y17780
X34798Y10795
X31623Y20701
X31623Y13081
X30988Y27940
X30988Y33020
X27178Y43180
X37973Y40640
X37338Y36830
X50038Y21590
X43688Y19050
X42418Y24130
X43434Y25146
X50038Y24130
X50038Y27940
X50038Y36830
X50038Y43180
X40513Y37465
X37338Y31750
X48768Y49530
X48768Y54610
X48768Y52070
X48768Y46990
X28448Y54610
X28448Y60960
X33020Y62230
X44196Y62230
X43688Y58420
X33528Y58420
X35433Y53848
X41783Y53848
X38608Y66548
X34417Y66548
X42799Y66548
X36449Y66548
X40767Y66548
X41783Y64135
X35433Y64135
X34798Y60325
X42418Y60325
X33528Y56515
X43688Y56515
X48768Y10160
X42418Y35560
X47498Y30607
X47498Y33147
X29083Y33020
X32893Y38735
X46609Y19050
X47625Y19050
X47625Y15240
X46609Y15240
X44958Y20320
X46228Y21590
X41783Y27305
X37973Y28575
X37973Y29845
X31877Y17399
X31877Y9779
X48768Y21590
X48768Y24130
X47498Y66040
X47498Y67310
X47498Y68580
X46228Y69850
X40513Y27305
X50038Y16510
X49403Y15875
X50673Y15875
X48768Y20955
X48768Y24765
X41148Y12065
X40894Y7263
X29718Y50800
X39878Y4953
X43688Y3175
X37338Y4953
X33528Y3175
X38608Y43815
X37973Y43180
X37338Y33020
X47498Y55245
X42418Y43180
X37338Y30480
X47498Y53975
X43053Y39370
X37338Y29210
X47498Y52705
X43688Y43180
X37338Y27940
X47498Y51435
X44323Y39370
X37338Y35560
X47498Y56515
X28448Y49530
X28448Y41148
X32258Y40005
X29718Y53340
X27178Y41275
X29718Y54610
X35433Y18415
X29718Y55880
X36068Y19050
X29718Y64770
X32258Y15240
X32258Y7620
X37592Y13081
X37338Y21590
X37338Y8890
X39878Y15240
X32893Y37338
X29083Y43180
X38608Y47752
X39878Y24130
X29718Y57150
X36703Y19685
X29718Y58420
X37338Y20320
X29718Y59690
X29718Y60960
X29718Y62230
X29718Y63500
X29718Y52070
X29718Y48260
X30988Y44450
X30988Y43180
X36830Y43180
X47498Y50165
X35052Y12065
X47498Y48895
X35687Y11430
X47498Y47625
X36322Y10795
X47498Y46355
X36957Y10160
X37338Y25654
X37338Y23749
X28448Y37465
X58166Y635
X70866Y635
X63246Y34290
X65151Y43180
X67056Y9525
X67666Y7036
X67056Y43815
X69596Y30607
X66548Y71755
X66548Y73025
X66548Y74295
X66548Y75565
X68707Y77597
X69977Y77597
X71247Y77597
X68072Y71374
X68072Y72644
X68072Y73914
X68072Y75184
X68834Y76200
X70104Y76200
X71374Y76200
X68961Y70485
X70231Y70485
X66548Y70485
X65151Y70485
X63881Y70485
X62484Y70485
X62484Y71755
X62484Y73025
X62484Y74295
X62484Y75565
X62484Y76835
X60325Y77597
X59055Y77597
X57785Y77597
X60960Y71374
X60960Y72644
X60960Y73914
X60960Y75184
X60198Y76200
X58928Y76200
X57658Y76200
X55499Y77470
X60071Y70485
X58801Y70485
X73533Y77470
X72644Y76581
X66548Y76835
X56388Y76581
X55626Y67310
X55626Y66040
X55626Y68580
X56896Y69850
X73406Y57785
X73406Y64770
X64516Y49530
X55626Y45720
X73406Y45085
X60706Y81915
X68326Y81915
X63246Y81915
X65786Y81915
X75946Y77470
X75946Y71120
X53086Y71120
X53086Y77470
X53086Y64770
X75946Y64770
X52451Y80264
X76581Y80264
X52451Y4445
X76581Y4445
X68326Y8890
X61976Y8890
X60706Y17780
X60706Y10795
X57531Y20701
X57531Y13081
X56896Y27940
X56896Y33020
X53086Y43180
X63881Y40640
X63246Y36830
X75946Y21590
X69596Y19050
X68326Y24130
X69342Y25146
X75946Y24130
X75946Y27940
X75946Y36830
X75946Y43180
X66421Y37465
X63246Y31750
X74676Y49530
X74676Y54610
X74676Y52070
X74676Y46990
X54356Y54610
X54356Y60960
X58928Y62230
X70104Y62230
X69596Y58420
X59436Y58420
X61341Y53848
X67691Y53848
X64516Y66548
X60325Y66548
X68707Y66548
X62357Y66548
X66675Y66548
X67691Y64135
X61341Y64135
X60706Y60325
X68326Y60325
X59436Y56515
X69596Y56515
X74676Y10160
X68326Y35560
X73406Y30607
X73406Y33147
X54991Y33020
X58801Y38735
X72517Y19050
X73533Y19050
X73533Y15240
X72517Y15240
X70866Y20320
X72136Y21590
X67691Y27305
X63881Y28575
X63881Y29845
X57785Y17399
X57785Y9779
X74676Y21590
X74676Y24130
X73406Y66040
X73406Y67310
X73406Y68580
X72136Y69850
X66421Y27305
X75946Y16510
X75311Y15875
X76581Y15875
X74676Y20955
X74676Y24765
X67056Y12065
X66802Y7263
X55626Y50800
X65786Y4953
X69596Y3175
X63246Y4953
X59436Y3175
X64516Y43815
X63881Y43180
X63246Y33020
X73406Y55245
X68326Y43180
X63246Y30480
X73406Y53975
X68961Y39370
X63246Y29210
X73406Y52705
X69596Y43180
X63246Y27940
X73406Y51435
X70231Y39370
X63246Y35560
X73406Y56515
X54356Y49530
X54356Y41148
X58166Y40005
X55626Y53340
X53086Y41275
X55626Y54610
X61341Y18415
X55626Y55880
X61976Y19050
X55626Y64770
X58166Y15240
X58166Y7620
X63500Y13081
X63246Y21590
X63246Y8890
X65786Y15240
X58801Y37338
X54991Y43180
X64516Y47752
X65786Y24130
X55626Y57150
X62611Y19685
X55626Y58420
X63246Y20320
X55626Y59690
X55626Y60960
X55626Y62230
X55626Y63500
X55626Y52070
X55626Y48260
X56896Y44450
X56896Y43180
X62738Y43180
X73406Y50165
X60960Y12065
X73406Y48895
X61595Y11430
X73406Y47625
X62230Y10795
X73406Y46355
X62865Y10160
X63246Y25654
X63246Y23749
X54356Y37465
X84074Y635
X96774Y635
X89154Y34290
X91059Y43180
X92964Y9525
X93574Y7036
X92964Y43815
X95504Y30607
X92456Y71755
X92456Y73025
X92456Y74295
X92456Y75565
X94615Y77597
X95885Y77597
X97155Y77597
X93980Y71374
X93980Y72644
X93980Y73914
X93980Y75184
X94742Y76200
X96012Y76200
X97282Y76200
X94869Y70485
X96139Y70485
X92456Y70485
X91059Y70485
X89789Y70485
X88392Y70485
X88392Y71755
X88392Y73025
X88392Y74295
X88392Y75565
X88392Y76835
X86233Y77597
X84963Y77597
X83693Y77597
X86868Y71374
X86868Y72644
X86868Y73914
X86868Y75184
X86106Y76200
X84836Y76200
X83566Y76200
X81407Y77470
X85979Y70485
X84709Y70485
X99441Y77470
X98552Y76581
X92456Y76835
X82296Y76581
X81534Y67310
X81534Y66040
X81534Y68580
X82804Y69850
X99314Y57785
X99314Y64770
X90424Y49530
X81534Y45720
X99314Y45085
X86614Y81915
X94234Y81915
X89154Y81915
X91694Y81915
X101854Y77470
X101854Y71120
X78994Y71120
X78994Y77470
X78994Y64770
X101854Y64770
X78359Y80264
X102489Y80264
X78359Y4445
X102489Y4445
X94234Y8890
X87884Y8890
X86614Y17780
X86614Y10795
X83439Y20701
X83439Y13081
X82804Y27940
X82804Y33020
X78994Y43180
X89789Y40640
X89154Y36830
X101854Y21590
X95504Y19050
X94234Y24130
X95250Y25146
X101854Y24130
X101854Y27940
X101854Y36830
X101854Y43180
X92329Y37465
X89154Y31750
X100584Y49530
X100584Y54610
X100584Y52070
X100584Y46990
X80264Y54610
X80264Y60960
X84836Y62230
X96012Y62230
X95504Y58420
X85344Y58420
X87249Y53848
X93599Y53848
X90424Y66548
X86233Y66548
X94615Y66548
X88265Y66548
X92583Y66548
X93599Y64135
X87249Y64135
X86614Y60325
X94234Y60325
X85344Y56515
X95504Y56515
X100584Y10160
X94234Y35560
X99314Y30607
X99314Y33147
X80899Y33020
X84709Y38735
X98425Y19050
X99441Y19050
X99441Y15240
X98425Y15240
X96774Y20320
X98044Y21590
X93599Y27305
X89789Y28575
X89789Y29845
X83693Y17399
X83693Y9779
X100584Y21590
X100584Y24130
X99314Y66040
X99314Y67310
X99314Y68580
X98044Y69850
X92329Y27305
X101854Y16510
X101219Y15875
X102489Y15875
X100584Y20955
X100584Y24765
X92964Y12065
X92710Y7263
X81534Y50800
X91694Y4953
X95504Y3175
X89154Y4953
X85344Y3175
X90424Y43815
X89789Y43180
X89154Y33020
X99314Y55245
X94234Y43180
X89154Y30480
X99314Y53975
X94869Y39370
X89154Y29210
X99314Y52705
X95504Y43180
X89154Y27940
X99314Y51435
X96139Y39370
X89154Y35560
X99314Y56515
X80264Y49530
X80264Y41148
X84074Y40005
X81534Y53340
X78994Y41275
X81534Y54610
X87249Y18415
X81534Y55880
X87884Y19050
X81534Y64770
X84074Y15240
X84074Y7620
X89408Y13081
X89154Y21590
X89154Y8890
X91694Y15240
X84709Y37338
X80899Y43180
X90424Y47752
X91694Y24130
X81534Y57150
X88519Y19685
X81534Y58420
X89154Y20320
X81534Y59690
X81534Y60960
X81534Y62230
X81534Y63500
X81534Y52070
X81534Y48260
X82804Y44450
X82804Y43180
X88646Y43180
X99314Y50165
X86868Y12065
X99314Y48895
X87503Y11430
X99314Y47625
X88138Y10795
X99314Y46355
X88773Y10160
X89154Y25654
X89154Y23749
X80264Y37465
X6350Y85725
X19050Y85725
X11430Y119380
X13335Y128270
X15240Y94615
X15850Y92126
X15240Y128905
X17780Y115697
X14732Y156845
X14732Y158115
X14732Y159385
X14732Y160655
X16891Y162687
X18161Y162687
X19431Y162687
X16256Y156464
X16256Y157734
X16256Y159004
X16256Y160274
X17018Y161290
X18288Y161290
X19558Y161290
X17145Y155575
X18415Y155575
X14732Y155575
X13335Y155575
X12065Y155575
X10668Y155575
X10668Y156845
X10668Y158115
X10668Y159385
X10668Y160655
X10668Y161925
X8509Y162687
X7239Y162687
X5969Y162687
X9144Y156464
X9144Y157734
X9144Y159004
X9144Y160274
X8382Y161290
X7112Y161290
X5842Y161290
X3683Y162560
X8255Y155575
X6985Y155575
X21717Y162560
X20828Y161671
X14732Y161925
X4572Y161671
X3810Y152400
X3810Y151130
X3810Y153670
X5080Y154940
X21590Y142875
X21590Y149860
X12700Y134620
X3810Y130810
X21590Y130175
X8890Y167005
X16510Y167005
X11430Y167005
X13970Y167005
X24130Y162560
X24130Y156210
X1270Y156210
X1270Y162560
X1270Y149860
X24130Y149860
X635Y165354
X24765Y165354
X635Y89535
X24765Y89535
X16510Y93980
X10160Y93980
X8890Y102870
X8890Y95885
X5715Y105791
X5715Y98171
X5080Y113030
X5080Y118110
X1270Y128270
X12065Y125730
X11430Y121920
X24130Y106680
X17780Y104140
X16510Y109220
X17526Y110236
X24130Y109220
X24130Y113030
X24130Y121920
X24130Y128270
X14605Y122555
X11430Y116840
X22860Y134620
X22860Y139700
X22860Y137160
X22860Y132080
X2540Y139700
X2540Y146050
X7112Y147320
X18288Y147320
X17780Y143510
X7620Y143510
X9525Y138938
X15875Y138938
X12700Y151638
X8509Y151638
X16891Y151638
X10541Y151638
X14859Y151638
X15875Y149225
X9525Y149225
X8890Y145415
X16510Y145415
X7620Y141605
X17780Y141605
X22860Y95250
X16510Y120650
X21590Y115697
X21590Y118237
X3175Y118110
X6985Y123825
X20701Y104140
X21717Y104140
X21717Y100330
X20701Y100330
X19050Y105410
X20320Y106680
X15875Y112395
X12065Y113665
X12065Y114935
X5969Y102489
X5969Y94869
X22860Y106680
X22860Y109220
X21590Y151130
X21590Y152400
X21590Y153670
X20320Y154940
X14605Y112395
X24130Y101600
X23495Y100965
X24765Y100965
X22860Y106045
X22860Y109855
X15240Y97155
X14986Y92353
X3810Y135890
X13970Y90043
X17780Y88265
X11430Y90043
X7620Y88265
X12700Y128905
X12065Y128270
X11430Y118110
X21590Y140335
X16510Y128270
X11430Y115570
X21590Y139065
X17145Y124460
X11430Y114300
X21590Y137795
X17780Y128270
X11430Y113030
X21590Y136525
X18415Y124460
X11430Y120650
X21590Y141605
X2540Y134620
X2540Y126238
X6350Y125095
X3810Y138430
X1270Y126365
X3810Y139700
X9525Y103505
X3810Y140970
X10160Y104140
X3810Y149860
X6350Y100330
X6350Y92710
X11684Y98171
X11430Y106680
X11430Y93980
X13970Y100330
X6985Y122428
X3175Y128270
X12700Y132842
X13970Y109220
X3810Y142240
X10795Y104775
X3810Y143510
X11430Y105410
X3810Y144780
X3810Y146050
X3810Y147320
X3810Y148590
X3810Y137160
X3810Y133350
X5080Y129540
X5080Y128270
X10922Y128270
X21590Y135255
X9144Y97155
X21590Y133985
X9779Y96520
X21590Y132715
X10414Y95885
X21590Y131445
X11049Y95250
X11430Y110744
X11430Y108839
X2540Y122555
X32258Y85725
X44958Y85725
X37338Y119380
X39243Y128270
X41148Y94615
X41758Y92126
X41148Y128905
X43688Y115697
X40640Y156845
X40640Y158115
X40640Y159385
X40640Y160655
X42799Y162687
X44069Y162687
X45339Y162687
X42164Y156464
X42164Y157734
X42164Y159004
X42164Y160274
X42926Y161290
X44196Y161290
X45466Y161290
X43053Y155575
X44323Y155575
X40640Y155575
X39243Y155575
X37973Y155575
X36576Y155575
X36576Y156845
X36576Y158115
X36576Y159385
X36576Y160655
X36576Y161925
X34417Y162687
X33147Y162687
X31877Y162687
X35052Y156464
X35052Y157734
X35052Y159004
X35052Y160274
X34290Y161290
X33020Y161290
X31750Y161290
X29591Y162560
X34163Y155575
X32893Y155575
X47625Y162560
X46736Y161671
X40640Y161925
X30480Y161671
X29718Y152400
X29718Y151130
X29718Y153670
X30988Y154940
X47498Y142875
X47498Y149860
X38608Y134620
X29718Y130810
X47498Y130175
X34798Y167005
X42418Y167005
X37338Y167005
X39878Y167005
X50038Y162560
X50038Y156210
X27178Y156210
X27178Y162560
X27178Y149860
X50038Y149860
X26543Y165354
X50673Y165354
X26543Y89535
X50673Y89535
X42418Y93980
X36068Y93980
X34798Y102870
X34798Y95885
X31623Y105791
X31623Y98171
X30988Y113030
X30988Y118110
X27178Y128270
X37973Y125730
X37338Y121920
X50038Y106680
X43688Y104140
X42418Y109220
X43434Y110236
X50038Y109220
X50038Y113030
X50038Y121920
X50038Y128270
X40513Y122555
X37338Y116840
X48768Y134620
X48768Y139700
X48768Y137160
X48768Y132080
X28448Y139700
X28448Y146050
X33020Y147320
X44196Y147320
X43688Y143510
X33528Y143510
X35433Y138938
X41783Y138938
X38608Y151638
X34417Y151638
X42799Y151638
X36449Y151638
X40767Y151638
X41783Y149225
X35433Y149225
X34798Y145415
X42418Y145415
X33528Y141605
X43688Y141605
X48768Y95250
X42418Y120650
X47498Y115697
X47498Y118237
X29083Y118110
X32893Y123825
X46609Y104140
X47625Y104140
X47625Y100330
X46609Y100330
X44958Y105410
X46228Y106680
X41783Y112395
X37973Y113665
X37973Y114935
X31877Y102489
X31877Y94869
X48768Y106680
X48768Y109220
X47498Y151130
X47498Y152400
X47498Y153670
X46228Y154940
X40513Y112395
X50038Y101600
X49403Y100965
X50673Y100965
X48768Y106045
X48768Y109855
X41148Y97155
X40894Y92353
X29718Y135890
X39878Y90043
X43688Y88265
X37338Y90043
X33528Y88265
X38608Y128905
X37973Y128270
X37338Y118110
X47498Y140335
X42418Y128270
X37338Y115570
X47498Y139065
X43053Y124460
X37338Y114300
X47498Y137795
X43688Y128270
X37338Y113030
X47498Y136525
X44323Y124460
X37338Y120650
X47498Y141605
X28448Y134620
X28448Y126238
X32258Y125095
X29718Y138430
X27178Y126365
X29718Y139700
X35433Y103505
X29718Y140970
X36068Y104140
X29718Y149860
X32258Y100330
X32258Y92710
X37592Y98171
X37338Y106680
X37338Y93980
X39878Y100330
X32893Y122428
X29083Y128270
X38608Y132842
X39878Y109220
X29718Y142240
X36703Y104775
X29718Y143510
X37338Y105410
X29718Y144780
X29718Y146050
X29718Y147320
X29718Y148590
X29718Y137160
X29718Y133350
X30988Y129540
X30988Y128270
X36830Y128270
X47498Y135255
X35052Y97155
X47498Y133985
X35687Y96520
X47498Y132715
X36322Y95885
X47498Y131445
X36957Y95250
X37338Y110744
X37338Y108839
X28448Y122555
X58166Y85725
X70866Y85725
X63246Y119380
X65151Y128270
X67056Y94615
X67666Y92126
X67056Y128905
X69596Y115697
X66548Y156845
X66548Y158115
X66548Y159385
X66548Y160655
X68707Y162687
X69977Y162687
X71247Y162687
X68072Y156464
X68072Y157734
X68072Y159004
X68072Y160274
X68834Y161290
X70104Y161290
X71374Y161290
X68961Y155575
X70231Y155575
X66548Y155575
X65151Y155575
X63881Y155575
X62484Y155575
X62484Y156845
X62484Y158115
X62484Y159385
X62484Y160655
X62484Y161925
X60325Y162687
X59055Y162687
X57785Y162687
X60960Y156464
X60960Y157734
X60960Y159004
X60960Y160274
X60198Y161290
X58928Y161290
X57658Y161290
X55499Y162560
X60071Y155575
X58801Y155575
X73533Y162560
X72644Y161671
X66548Y161925
X56388Y161671
X55626Y152400
X55626Y151130
X55626Y153670
X56896Y154940
X73406Y142875
X73406Y149860
X64516Y134620
X55626Y130810
X73406Y130175
X60706Y167005
X68326Y167005
X63246Y167005
X65786Y167005
X75946Y162560
X75946Y156210
X53086Y156210
X53086Y162560
X53086Y149860
X75946Y149860
X52451Y165354
X76581Y165354
X52451Y89535
X76581Y89535
X68326Y93980
X61976Y93980
X60706Y102870
X60706Y95885
X57531Y105791
X57531Y98171
X56896Y113030
X56896Y118110
X53086Y128270
X63881Y125730
X63246Y121920
X75946Y106680
X69596Y104140
X68326Y109220
X69342Y110236
X75946Y109220
X75946Y113030
X75946Y121920
X75946Y128270
X66421Y122555
X63246Y116840
X74676Y134620
X74676Y139700
X74676Y137160
X74676Y132080
X54356Y139700
X54356Y146050
X58928Y147320
X70104Y147320
X69596Y143510
X59436Y143510
X61341Y138938
X67691Y138938
X64516Y151638
X60325Y151638
X68707Y151638
X62357Y151638
X66675Y151638
X67691Y149225
X61341Y149225
X60706Y145415
X68326Y145415
X59436Y141605
X69596Y141605
X74676Y95250
X68326Y120650
X73406Y115697
X73406Y118237
X54991Y118110
X58801Y123825
X72517Y104140
X73533Y104140
X73533Y100330
X72517Y100330
X70866Y105410
X72136Y106680
X67691Y112395
X63881Y113665
X63881Y114935
X57785Y102489
X57785Y94869
X74676Y106680
X74676Y109220
X73406Y151130
X73406Y152400
X73406Y153670
X72136Y154940
X66421Y112395
X75946Y101600
X75311Y100965
X76581Y100965
X74676Y106045
X74676Y109855
X67056Y97155
X66802Y92353
X55626Y135890
X65786Y90043
X69596Y88265
X63246Y90043
X59436Y88265
X64516Y128905
X63881Y128270
X63246Y118110
X73406Y140335
X68326Y128270
X63246Y115570
X73406Y139065
X68961Y124460
X63246Y114300
X73406Y137795
X69596Y128270
X63246Y113030
X73406Y136525
X70231Y124460
X6350Y635
X73406Y141605
X54356Y134620
X54356Y126238
X58166Y125095
X55626Y138430
X53086Y126365
X55626Y139700
X61341Y103505
X55626Y140970
X61976Y104140
X55626Y149860
X58166Y100330
X58166Y92710
X63500Y98171
X63246Y106680
X63246Y93980
X65786Y100330
X58801Y122428
X54991Y128270
X64516Y132842
X65786Y109220
X55626Y142240
X62611Y104775
X55626Y143510
X63246Y105410
X55626Y144780
X55626Y146050
X55626Y147320
X55626Y148590
X55626Y137160
X55626Y133350
X56896Y129540
X56896Y128270
X62738Y128270
X73406Y135255
X60960Y97155
X73406Y133985
X61595Y96520
X73406Y132715
X62230Y95885
X73406Y131445
X62865Y95250
X63246Y110744
X63246Y108839
X54356Y122555
X84074Y85725
X96774Y85725
X89154Y119380
X91059Y128270
X92964Y94615
X93574Y92126
X92964Y128905
X95504Y115697
X92456Y156845
X92456Y158115
X92456Y159385
X92456Y160655
X94615Y162687
X95885Y162687
X97155Y162687
X93980Y156464
X93980Y157734
X93980Y159004
X93980Y160274
X94742Y161290
X96012Y161290
X97282Y161290
X94869Y155575
X96139Y155575
X92456Y155575
X91059Y155575
X89789Y155575
X88392Y155575
X88392Y156845
X88392Y158115
X88392Y159385
X88392Y160655
X88392Y161925
X86233Y162687
X84963Y162687
X83693Y162687
X86868Y156464
X86868Y157734
X86868Y159004
X86868Y160274
X86106Y161290
X84836Y161290
X83566Y161290
X81407Y162560
X85979Y155575
X84709Y155575
X99441Y162560
X98552Y161671
X92456Y161925
X82296Y161671
X81534Y152400
X81534Y151130
X81534Y153670
X82804Y154940
X99314Y142875
X99314Y149860
X90424Y134620
X81534Y130810
X99314Y130175
X86614Y167005
X94234Y167005
X89154Y167005
X91694Y167005
X101854Y162560
X101854Y156210
X78994Y156210
X78994Y162560
X78994Y149860
X101854Y149860
X78359Y165354
X102489Y165354
X78359Y89535
X102489Y89535
X94234Y93980
X87884Y93980
X86614Y102870
X86614Y95885
X83439Y105791
X83439Y98171
X82804Y113030
X82804Y118110
X78994Y128270
X89789Y125730
X89154Y121920
X101854Y106680
X95504Y104140
X94234Y109220
X95250Y110236
X101854Y109220
X101854Y113030
X101854Y121920
X101854Y128270
X92329Y122555
X89154Y116840
X100584Y134620
X100584Y139700
X100584Y137160
X100584Y132080
X80264Y139700
X80264Y146050
X84836Y147320
X96012Y147320
X95504Y143510
X85344Y143510
X87249Y138938
X93599Y138938
X90424Y151638
X86233Y151638
X94615Y151638
X88265Y151638
X92583Y151638
X93599Y149225
X87249Y149225
X86614Y145415
X94234Y145415
X85344Y141605
X95504Y141605
X100584Y95250
X94234Y120650
X99314Y115697
X99314Y118237
X80899Y118110
X84709Y123825
X98425Y104140
X99441Y104140
X99441Y100330
X98425Y100330
X96774Y105410
X98044Y106680
X93599Y112395
X89789Y113665
X89789Y114935
X83693Y102489
X83693Y94869
X100584Y106680
X100584Y109220
X99314Y151130
X99314Y152400
X99314Y153670
X98044Y154940
X92329Y112395
X101854Y101600
X101219Y100965
X102489Y100965
X100584Y106045
X100584Y109855
X92964Y97155
X92710Y92353
X81534Y135890
X91694Y90043
X95504Y88265
X89154Y90043
X85344Y88265
X90424Y128905
X89789Y128270
X89154Y118110
X99314Y140335
X94234Y128270
X89154Y115570
X99314Y139065
X94869Y124460
X89154Y114300
X99314Y137795
X95504Y128270
X89154Y113030
X99314Y136525
X96139Y124460
X89154Y120650
X99314Y141605
X80264Y134620
X80264Y126238
X84074Y125095
X81534Y138430
X78994Y126365
X81534Y139700
X87249Y103505
X81534Y140970
X87884Y104140
X81534Y149860
X84074Y100330
X84074Y92710
X89408Y98171
X89154Y106680
X89154Y93980
X91694Y100330
X84709Y122428
X80899Y128270
X90424Y132842
X91694Y109220
X81534Y142240
X88519Y104775
X81534Y143510
X89154Y105410
X81534Y144780
X81534Y146050
X63246Y120650
X81534Y148590
X81534Y137160
X81534Y133350
X82804Y129540
X82804Y128270
X88646Y128270
X99314Y135255
X86868Y97155
X99314Y133985
X87503Y96520
X99314Y132715
X88138Y95885
X99314Y131445
X88773Y95250
X89154Y110744
X89154Y108839
X80264Y122555
X19050Y635
X11430Y34290
X13335Y43180
X15240Y9525
X15850Y7036
X15240Y43815
X17780Y30607
X14732Y71755
X14732Y73025
X14732Y74295
X14732Y75565
X16891Y77597
X18161Y77597
X19431Y77597
X16256Y71374
X16256Y72644
X16256Y73914
X16256Y75184
X17018Y76200
X18288Y76200
X19558Y76200
X17145Y70485
X18415Y70485
X14732Y70485
X13335Y70485
X12065Y70485
X10668Y70485
X10668Y71755
X10668Y73025
X10668Y74295
X10668Y75565
X10668Y76835
X8509Y77597
X7239Y77597
X5969Y77597
X9144Y71374
X9144Y72644
X9144Y73914
X9144Y75184
X8382Y76200
X7112Y76200
X5842Y76200
X3683Y77470
X8255Y70485
X6985Y70485
X21717Y77470
X20828Y76581
X14732Y76835
X4572Y76581
X3810Y67310
X3810Y66040
X3810Y68580
X5080Y69850
X21590Y57785
X21590Y64770
X12700Y49530
X3810Y45720
X21590Y45085
X8890Y81915
X16510Y81915
X11430Y81915
X13970Y81915
X24130Y77470
X24130Y71120
X1270Y71120
X1270Y77470
X1270Y64770
X24130Y64770
X635Y80264
X24765Y80264
X635Y4445
X24765Y4445
X16510Y8890
X10160Y8890
X8890Y17780
X8890Y10795
X5715Y20701
X5715Y13081
X5080Y27940
X5080Y33020
X1270Y43180
X12065Y40640
X11430Y36830
X24130Y21590
X17780Y19050
X16510Y24130
X17526Y25146
X24130Y24130
X24130Y27940
X24130Y36830
X24130Y43180
X14605Y37465
X11430Y31750
X22860Y49530
X22860Y54610
X22860Y52070
X22860Y46990
X2540Y54610
X2540Y60960
X7112Y62230
X18288Y62230
X17780Y58420
X7620Y58420
X9525Y53848
X15875Y53848
X12700Y66548
X8509Y66548
X16891Y66548
X10541Y66548
X14859Y66548
X15875Y64135
X9525Y64135
X8890Y60325
X16510Y60325
X7620Y56515
X17780Y56515
X22860Y10160
X16510Y35560
X21590Y30607
X21590Y33147
X3175Y33020
X6985Y38735
X20701Y19050
X21717Y19050
X21717Y15240
X20701Y15240
X19050Y20320
X20320Y21590
X15875Y27305
X12065Y28575
X12065Y29845
X5969Y17399
X5969Y9779
X22860Y21590
X22860Y24130
X21590Y66040
X21590Y67310
X21590Y68580
X20320Y69850
X14605Y27305
X24130Y16510
X23495Y15875
X24765Y15875
X22860Y20955
X22860Y24765
X15240Y12065
X14986Y7263
X3810Y50800
X13970Y4953
X17780Y3175
X11430Y4953
X7620Y3175
X12700Y43815
X12065Y43180
X11430Y33020
X21590Y55245
X16510Y43180
X11430Y30480
X21590Y53975
X17145Y39370
X11430Y29210
X21590Y52705
X17780Y43180
X11430Y27940
X21590Y51435
X18415Y39370
X11430Y35560
X21590Y56515
X2540Y49530
X2540Y41148
X6350Y40005
X3810Y53340
X1270Y41275
X3810Y54610
X9525Y18415
X3810Y55880
X10160Y19050
X3810Y64770
X6350Y15240
X6350Y7620
X11684Y13081
X11430Y21590
X11430Y8890
X13970Y15240
X6985Y37338
X3175Y43180
X12700Y47752
X13970Y24130
X3810Y57150
X10795Y19685
X3810Y58420
X11430Y20320
X3810Y59690
X3810Y60960
X3810Y62230
X3810Y63500
X3810Y52070
X3810Y48260
X5080Y44450
X5080Y43180
X10922Y43180
X21590Y50165
X9144Y12065
X21590Y48895
X9779Y11430
X21590Y47625
X10414Y10795
X21590Y46355
X11049Y10160
X11430Y25654
X11430Y23749
X2540Y37465
X32258Y635
X44958Y635
X37338Y34290
X39243Y43180
X41148Y9525
X41758Y7036
X41148Y43815
X43688Y30607
X40640Y71755
X40640Y73025
X40640Y74295
X81534Y147320
M30