M48
;GenerationSoftware,Autodesk,EAGLE,9.6.2*%
;CreationDate,2023-09-15T17:08:53Z*%
FMAT,2
ICI,OFF
METRIC,TZ,000.000
T6C0.305
T5C0.400
T4C0.650
T3C0.750
T2C1.016
T1C3.302
%
G90
M71
T1
X74676Y2540
X48768Y2540
X28448Y73660
X2540Y2540
X22860Y2540
X2540Y73660
X22860Y73660
X48768Y73660
X54356Y73660
X54356Y2540
X74676Y73660
X28448Y2540
T2
X50038Y13970
X53086Y6350
X53086Y8890
X53086Y11430
X53086Y13970
X75946Y13970
X53086Y16510
X53086Y19050
X53086Y21590
X53086Y24130
X53086Y26670
X53086Y29210
X53086Y31750
X53086Y34290
X75946Y6350
X75946Y8890
X75946Y11430
X1270Y6350
X1270Y8890
X1270Y11430
X1270Y13970
X1270Y16510
X1270Y19050
X1270Y21590
X1270Y24130
X1270Y26670
X1270Y29210
X1270Y31750
X1270Y34290
X24130Y6350
X24130Y8890
X24130Y11430
X24130Y13970
X27178Y6350
X27178Y8890
X27178Y11430
X27178Y13970
X27178Y16510
X27178Y19050
X27178Y21590
X27178Y24130
X27178Y26670
X27178Y29210
X27178Y31750
X27178Y34290
X50038Y6350
X50038Y8890
X50038Y11430
T3
X22530Y36525
X22530Y28025
X48438Y36525
X48438Y28025
X74346Y36525
X74346Y28025
T4
X9810Y4905
X15590Y4905
X35718Y4905
X61626Y4905
X67406Y4905
X41498Y4905
T5
X8382Y1255
X17018Y1255
X17018Y5435
X8382Y5435
X60198Y5435
X34290Y1255
X42926Y1255
X42926Y5435
X34290Y5435
X60198Y1255
X68834Y1255
X68834Y5435
T6
X24130Y21590
X17780Y19050
X16510Y24130
X17780Y25400
X24130Y24130
X24130Y27940
X24130Y36830
X24130Y43180
X14605Y37465
X11430Y31750
X22860Y49530
X22860Y54610
X22860Y52070
X22860Y46990
X2540Y54610
X2540Y60960
X7620Y62230
X17780Y62230
X17780Y58420
X7620Y58420
X9525Y53975
X15875Y53975
X12700Y66548
X8509Y66548
X16891Y66548
X10541Y66548
X14859Y66548
X15875Y64135
X9525Y64135
X8890Y60325
X16510Y60325
X7620Y55880
X17780Y55880
X22860Y10160
X16510Y35560
X21590Y30607
X21590Y33147
X3175Y33020
X6985Y38735
X20701Y19050
X21717Y19050
X21717Y15240
X20701Y15240
X19050Y20320
X20320Y21590
X15875Y27305
X12065Y28575
X12065Y29845
X5969Y17399
X5969Y9779
X22860Y21590
X22860Y24130
X21590Y66040
X21590Y67310
X21590Y68580
X20320Y69850
X14605Y27305
X24130Y16510
X23495Y15875
X24765Y15875
X22860Y20955
X22860Y24765
X15240Y12065
X14986Y7263
X3810Y50800
X13970Y4953
X17780Y3175
X11430Y4953
X7620Y3175
X12700Y43815
X12065Y43180
X11430Y33020
X21590Y55245
X16510Y43180
X11430Y30480
X21590Y53975
X17145Y39370
X11430Y29210
X21590Y52705
X17780Y43180
X11430Y27940
X21590Y51435
X18415Y39370
X11430Y35560
X21590Y56515
X2540Y49530
X2540Y41148
X6350Y40005
X3810Y53340
X1270Y41275
X3810Y54610
X9525Y18415
X3810Y55880
X10160Y19050
X3810Y64770
X6350Y15240
X6350Y7620
X11684Y13081
X11430Y21590
X11430Y8890
X13970Y15240
X6985Y37338
X3175Y43180
X12700Y47752
X13970Y24130
X3810Y57150
X10795Y19685
X3810Y58420
X11430Y20320
X3810Y59690
X3810Y60960
X3810Y62230
X3810Y63500
X3810Y52070
X3810Y48260
X5080Y44450
X5080Y43180
X10922Y43180
X21590Y50165
X9144Y12065
X21590Y48895
X9779Y11430
X21590Y47625
X10414Y10795
X21590Y46355
X11049Y10160
X11430Y25654
X11430Y23749
X2540Y37465
X32258Y635
X44958Y635
X37338Y34290
X39243Y43180
X41148Y9525
X41758Y7036
X41148Y43815
X43688Y30607
X40640Y71755
X40640Y73025
X40640Y74295
X40640Y75565
X42799Y77597
X44069Y77597
X45339Y77597
X42164Y71374
X42164Y72644
X42164Y73914
X42164Y75184
X42926Y76200
X44196Y76200
X45466Y76200
X43053Y70485
X44323Y70485
X40640Y70485
X39243Y70485
X37973Y70485
X36576Y70485
X36576Y71755
X36576Y73025
X36576Y74295
X36576Y75565
X36576Y76835
X34417Y77597
X33147Y77597
X31877Y77597
X35052Y71374
X35052Y72644
X35052Y73914
X35052Y75184
X34290Y76200
X33020Y76200
X31750Y76200
X29591Y77470
X34163Y70485
X32893Y70485
X47625Y77470
X46736Y76581
X40640Y76835
X30480Y76581
X29718Y67310
X29718Y66040
X29718Y68580
X30988Y69850
X47498Y57785
X47498Y64770
X38608Y49530
X29718Y45720
X47498Y45085
X34798Y81915
X42418Y81915
X37338Y81915
X39878Y81915
X50038Y77470
X50038Y71120
X27178Y71120
X27178Y77470
X27178Y64770
X50038Y64770
X26543Y80264
X50673Y80264
X26543Y4445
X50673Y4445
X42418Y8890
X36068Y8890
X34798Y17780
X34798Y10795
X31623Y20955
X31623Y13335
X30988Y27940
X30988Y33020
X27178Y43180
X37973Y40640
X37338Y36830
X50038Y21590
X43688Y19050
X42418Y24130
X43688Y25400
X50038Y24130
X50038Y27940
X50038Y36830
X50038Y43180
X40513Y37465
X37338Y31750
X48768Y49530
X48768Y54610
X48768Y52070
X48768Y46990
X28448Y54610
X28448Y60960
X33528Y62230
X43688Y62230
X43688Y58420
X33528Y58420
X35433Y53975
X41783Y53975
X38608Y66548
X34417Y66548
X42799Y66548
X36449Y66548
X40767Y66548
X41783Y64135
X35433Y64135
X34798Y60325
X42418Y60325
X33528Y55880
X43688Y55880
X48768Y10160
X42418Y35560
X47498Y30607
X47498Y33147
X29083Y33020
X32893Y38735
X46609Y19050
X47625Y19050
X47625Y15240
X46609Y15240
X44958Y20320
X46228Y21590
X41783Y27305
X37973Y28575
X37973Y29845
X31877Y17399
X31877Y9779
X48768Y21590
X48768Y24130
X47498Y66040
X47498Y67310
X47498Y68580
X46228Y69850
X40513Y27305
X50038Y16510
X49403Y15875
X50673Y15875
X48768Y20955
X48768Y24765
X41148Y12065
X40894Y7263
X29718Y50800
X39878Y4953
X43688Y3175
X37338Y4953
X33528Y3175
X38608Y43815
X37973Y43180
X37338Y33020
X47498Y55245
X42418Y43180
X37338Y30480
X47498Y53975
X43053Y39370
X37338Y29210
X47498Y52705
X43688Y43180
X37338Y27940
X47498Y51435
X44323Y39370
X37338Y35560
X47498Y56515
X28448Y49530
X28448Y41148
X32258Y40005
X29718Y53340
X27178Y41275
X29718Y54610
X35433Y18415
X29718Y55880
X36068Y19050
X29718Y64770
X32258Y15240
X32258Y7620
X37592Y13081
X37338Y21590
X37338Y8890
X39878Y15240
X32893Y37338
X29083Y43180
X38608Y47752
X39878Y24130
X29718Y57150
X36703Y19685
X29718Y58420
X37338Y20320
X29718Y59690
X29718Y60960
X29718Y62230
X29718Y63500
X29718Y52070
X29718Y48260
X30988Y44450
X30988Y43180
X36830Y43180
X47498Y50165
X35052Y12065
X47498Y48895
X35687Y11430
X47498Y47625
X36322Y10795
X47498Y46355
X36957Y10160
X37338Y25654
X37338Y23749
X28448Y37465
X58166Y635
X70866Y635
X63246Y34290
X65151Y43180
X67056Y9525
X67666Y7036
X67056Y43815
X69596Y30607
X66548Y71755
X66548Y73025
X66548Y74295
X66548Y75565
X68707Y77597
X69977Y77597
X71247Y77597
X68072Y71374
X68072Y72644
X68072Y73914
X68072Y75184
X68834Y76200
X70104Y76200
X71374Y76200
X68961Y70485
X70231Y70485
X66548Y70485
X65151Y70485
X63881Y70485
X62484Y70485
X62484Y71755
X62484Y73025
X62484Y74295
X62484Y75565
X62484Y76835
X60325Y77597
X59055Y77597
X57785Y77597
X60960Y71374
X60960Y72644
X60960Y73914
X60960Y75184
X60198Y76200
X58928Y76200
X57658Y76200
X55499Y77470
X60071Y70485
X58801Y70485
X73533Y77470
X72644Y76581
X66548Y76835
X56388Y76581
X55626Y67310
X55626Y66040
X55626Y68580
X56896Y69850
X73406Y57785
X73406Y64770
X64516Y49530
X55626Y45720
X73406Y45085
X60706Y81915
X68326Y81915
X63246Y81915
X65786Y81915
X75946Y77470
X75946Y71120
X53086Y71120
X53086Y77470
X53086Y64770
X75946Y64770
X52451Y80264
X76581Y80264
X52451Y4445
X76581Y4445
X68326Y8890
X61976Y8890
X60706Y17780
X60706Y10795
X57531Y20955
X57531Y13335
X56896Y27940
X56896Y33020
X53086Y43180
X63881Y40640
X63246Y36830
X75946Y21590
X69596Y19050
X68326Y24130
X69596Y25400
X75946Y24130
X75946Y27940
X75946Y36830
X75946Y43180
X66421Y37465
X63246Y31750
X74676Y49530
X74676Y54610
X74676Y52070
X74676Y46990
X54356Y54610
X54356Y60960
X59436Y62230
X69596Y62230
X69596Y58420
X59436Y58420
X61341Y53975
X67691Y53975
X64516Y66548
X60325Y66548
X68707Y66548
X62357Y66548
X66675Y66548
X67691Y64135
X61341Y64135
X60706Y60325
X68326Y60325
X59436Y55880
X6350Y635
X74676Y10160
X68326Y35560
X73406Y30607
X73406Y33147
X54991Y33020
X58801Y38735
X72517Y19050
X73533Y19050
X73533Y15240
X72517Y15240
X70866Y20320
X72136Y21590
X67691Y27305
X63881Y28575
X63881Y29845
X57785Y17399
X57785Y9779
X74676Y21590
X74676Y24130
X73406Y66040
X73406Y67310
X73406Y68580
X72136Y69850
X66421Y27305
X75946Y16510
X75311Y15875
X76581Y15875
X74676Y20955
X74676Y24765
X67056Y12065
X66802Y7263
X55626Y50800
X65786Y4953
X69596Y3175
X63246Y4953
X59436Y3175
X64516Y43815
X63881Y43180
X63246Y33020
X73406Y55245
X68326Y43180
X63246Y30480
X73406Y53975
X68961Y39370
X63246Y29210
X73406Y52705
X69596Y43180
X63246Y27940
X73406Y51435
X70231Y39370
X63246Y35560
X73406Y56515
X54356Y49530
X54356Y41148
X58166Y40005
X55626Y53340
X53086Y41275
X55626Y54610
X61341Y18415
X55626Y55880
X61976Y19050
X55626Y64770
X58166Y15240
X58166Y7620
X63500Y13081
X63246Y21590
X63246Y8890
X65786Y15240
X58801Y37338
X54991Y43180
X64516Y47752
X65786Y24130
X55626Y57150
X62611Y19685
X55626Y58420
X63246Y20320
X55626Y59690
X55626Y60960
X55626Y62230
X55626Y63500
X55626Y52070
X55626Y48260
X56896Y44450
X56896Y43180
X62738Y43180
X73406Y50165
X60960Y12065
X73406Y48895
X61595Y11430
X69596Y55880
X62230Y10795
X73406Y46355
X62865Y10160
X63246Y25654
X63246Y23749
X54356Y37465
X19050Y635
X11430Y34290
X13335Y43180
X15240Y9525
X15850Y7036
X15240Y43815
X17780Y30607
X14732Y71755
X14732Y73025
X14732Y74295
X14732Y75565
X16891Y77597
X18161Y77597
X19431Y77597
X16256Y71374
X16256Y72644
X16256Y73914
X16256Y75184
X17018Y76200
X18288Y76200
X19558Y76200
X17145Y70485
X18415Y70485
X14732Y70485
X13335Y70485
X12065Y70485
X10668Y70485
X10668Y71755
X10668Y73025
X10668Y74295
X10668Y75565
X10668Y76835
X8509Y77597
X7239Y77597
X5969Y77597
X9144Y71374
X9144Y72644
X9144Y73914
X9144Y75184
X8382Y76200
X7112Y76200
X5842Y76200
X3683Y77470
X8255Y70485
X6985Y70485
X21717Y77470
X20828Y76581
X14732Y76835
X4572Y76581
X3810Y67310
X3810Y66040
X3810Y68580
X5080Y69850
X21590Y57785
X21590Y64770
X12700Y49530
X3810Y45720
X21590Y45085
X8890Y81915
X16510Y81915
X11430Y81915
X13970Y81915
X24130Y77470
X24130Y71120
X1270Y71120
X1270Y77470
X1270Y64770
X24130Y64770
X635Y80264
X24765Y80264
X635Y4445
X24765Y4445
X16510Y8890
X10160Y8890
X8890Y17780
X8890Y10795
X5715Y20955
X5715Y13335
X5080Y27940
X5080Y33020
X1270Y43180
X12065Y40640
X11430Y36830
X73406Y47625
M30