G04 EAGLE Gerber RS-274X export*
G75*
%MOMM*%
%FSLAX34Y34*%
%LPD*%
%INSoldermask Bottom*%
%IPPOS*%
%AMOC8*
5,1,8,0,0,1.08239X$1,22.5*%
G01*
%ADD10C,0.264381*%
%ADD11C,0.802400*%
%ADD12C,3.454400*%
%ADD13C,0.251966*%
%ADD14C,0.902400*%
%ADD15C,1.422400*%
%ADD16C,1.152400*%
%ADD17C,2.032000*%
%ADD18C,1.270000*%
%ADD19C,1.652400*%

G36*
X285815Y1419872D02*
X285815Y1419872D01*
X285881Y1419874D01*
X285924Y1419892D01*
X285971Y1419900D01*
X286028Y1419934D01*
X286088Y1419959D01*
X286123Y1419990D01*
X286164Y1420015D01*
X286206Y1420066D01*
X286254Y1420110D01*
X286276Y1420152D01*
X286305Y1420189D01*
X286326Y1420251D01*
X286357Y1420310D01*
X286365Y1420364D01*
X286377Y1420401D01*
X286376Y1420441D01*
X286384Y1420495D01*
X286384Y1424305D01*
X286373Y1424370D01*
X286371Y1424436D01*
X286353Y1424479D01*
X286345Y1424526D01*
X286311Y1424583D01*
X286286Y1424643D01*
X286255Y1424678D01*
X286230Y1424719D01*
X286179Y1424761D01*
X286135Y1424809D01*
X286093Y1424831D01*
X286056Y1424860D01*
X285994Y1424881D01*
X285935Y1424912D01*
X285881Y1424920D01*
X285844Y1424932D01*
X285804Y1424931D01*
X285750Y1424939D01*
X283210Y1424939D01*
X283145Y1424928D01*
X283079Y1424926D01*
X283036Y1424908D01*
X282989Y1424900D01*
X282932Y1424866D01*
X282872Y1424841D01*
X282837Y1424810D01*
X282796Y1424785D01*
X282755Y1424734D01*
X282706Y1424690D01*
X282684Y1424648D01*
X282655Y1424611D01*
X282634Y1424549D01*
X282603Y1424490D01*
X282595Y1424436D01*
X282583Y1424399D01*
X282583Y1424395D01*
X282583Y1424394D01*
X282584Y1424359D01*
X282576Y1424305D01*
X282576Y1420495D01*
X282587Y1420430D01*
X282589Y1420364D01*
X282607Y1420321D01*
X282615Y1420274D01*
X282649Y1420217D01*
X282674Y1420157D01*
X282705Y1420122D01*
X282730Y1420081D01*
X282781Y1420040D01*
X282825Y1419991D01*
X282867Y1419969D01*
X282904Y1419940D01*
X282966Y1419919D01*
X283025Y1419888D01*
X283079Y1419880D01*
X283116Y1419868D01*
X283156Y1419869D01*
X283210Y1419861D01*
X285750Y1419861D01*
X285815Y1419872D01*
G37*
G36*
X544895Y1419872D02*
X544895Y1419872D01*
X544961Y1419874D01*
X545004Y1419892D01*
X545051Y1419900D01*
X545108Y1419934D01*
X545168Y1419959D01*
X545203Y1419990D01*
X545244Y1420015D01*
X545286Y1420066D01*
X545334Y1420110D01*
X545356Y1420152D01*
X545385Y1420189D01*
X545406Y1420251D01*
X545437Y1420310D01*
X545445Y1420364D01*
X545457Y1420401D01*
X545456Y1420441D01*
X545464Y1420495D01*
X545464Y1424305D01*
X545453Y1424370D01*
X545451Y1424436D01*
X545433Y1424479D01*
X545425Y1424526D01*
X545391Y1424583D01*
X545366Y1424643D01*
X545335Y1424678D01*
X545310Y1424719D01*
X545259Y1424761D01*
X545215Y1424809D01*
X545173Y1424831D01*
X545136Y1424860D01*
X545074Y1424881D01*
X545015Y1424912D01*
X544961Y1424920D01*
X544924Y1424932D01*
X544884Y1424931D01*
X544830Y1424939D01*
X542290Y1424939D01*
X542225Y1424928D01*
X542159Y1424926D01*
X542116Y1424908D01*
X542069Y1424900D01*
X542012Y1424866D01*
X541952Y1424841D01*
X541917Y1424810D01*
X541876Y1424785D01*
X541835Y1424734D01*
X541786Y1424690D01*
X541764Y1424648D01*
X541735Y1424611D01*
X541714Y1424549D01*
X541683Y1424490D01*
X541675Y1424436D01*
X541663Y1424399D01*
X541663Y1424395D01*
X541663Y1424394D01*
X541664Y1424359D01*
X541656Y1424305D01*
X541656Y1420495D01*
X541667Y1420430D01*
X541669Y1420364D01*
X541687Y1420321D01*
X541695Y1420274D01*
X541729Y1420217D01*
X541754Y1420157D01*
X541785Y1420122D01*
X541810Y1420081D01*
X541861Y1420040D01*
X541905Y1419991D01*
X541947Y1419969D01*
X541984Y1419940D01*
X542046Y1419919D01*
X542105Y1419888D01*
X542159Y1419880D01*
X542196Y1419868D01*
X542236Y1419869D01*
X542290Y1419861D01*
X544830Y1419861D01*
X544895Y1419872D01*
G37*
G36*
X26735Y1419872D02*
X26735Y1419872D01*
X26801Y1419874D01*
X26844Y1419892D01*
X26891Y1419900D01*
X26948Y1419934D01*
X27008Y1419959D01*
X27043Y1419990D01*
X27084Y1420015D01*
X27126Y1420066D01*
X27174Y1420110D01*
X27196Y1420152D01*
X27225Y1420189D01*
X27246Y1420251D01*
X27277Y1420310D01*
X27285Y1420364D01*
X27297Y1420401D01*
X27296Y1420441D01*
X27304Y1420495D01*
X27304Y1424305D01*
X27293Y1424370D01*
X27291Y1424436D01*
X27273Y1424479D01*
X27265Y1424526D01*
X27231Y1424583D01*
X27206Y1424643D01*
X27175Y1424678D01*
X27150Y1424719D01*
X27099Y1424761D01*
X27055Y1424809D01*
X27013Y1424831D01*
X26976Y1424860D01*
X26914Y1424881D01*
X26855Y1424912D01*
X26801Y1424920D01*
X26764Y1424932D01*
X26724Y1424931D01*
X26670Y1424939D01*
X24130Y1424939D01*
X24065Y1424928D01*
X23999Y1424926D01*
X23956Y1424908D01*
X23909Y1424900D01*
X23852Y1424866D01*
X23792Y1424841D01*
X23757Y1424810D01*
X23716Y1424785D01*
X23675Y1424734D01*
X23626Y1424690D01*
X23604Y1424648D01*
X23575Y1424611D01*
X23554Y1424549D01*
X23523Y1424490D01*
X23515Y1424436D01*
X23503Y1424399D01*
X23503Y1424395D01*
X23503Y1424394D01*
X23504Y1424359D01*
X23496Y1424305D01*
X23496Y1420495D01*
X23507Y1420430D01*
X23509Y1420364D01*
X23527Y1420321D01*
X23535Y1420274D01*
X23569Y1420217D01*
X23594Y1420157D01*
X23625Y1420122D01*
X23650Y1420081D01*
X23701Y1420040D01*
X23745Y1419991D01*
X23787Y1419969D01*
X23824Y1419940D01*
X23886Y1419919D01*
X23945Y1419888D01*
X23999Y1419880D01*
X24036Y1419868D01*
X24076Y1419869D01*
X24130Y1419861D01*
X26670Y1419861D01*
X26735Y1419872D01*
G37*
G36*
X803975Y1419872D02*
X803975Y1419872D01*
X804041Y1419874D01*
X804084Y1419892D01*
X804131Y1419900D01*
X804188Y1419934D01*
X804248Y1419959D01*
X804283Y1419990D01*
X804324Y1420015D01*
X804366Y1420066D01*
X804414Y1420110D01*
X804436Y1420152D01*
X804465Y1420189D01*
X804486Y1420251D01*
X804517Y1420310D01*
X804525Y1420364D01*
X804537Y1420401D01*
X804536Y1420441D01*
X804544Y1420495D01*
X804544Y1424305D01*
X804533Y1424370D01*
X804531Y1424436D01*
X804513Y1424479D01*
X804505Y1424526D01*
X804471Y1424583D01*
X804446Y1424643D01*
X804415Y1424678D01*
X804390Y1424719D01*
X804339Y1424761D01*
X804295Y1424809D01*
X804253Y1424831D01*
X804216Y1424860D01*
X804154Y1424881D01*
X804095Y1424912D01*
X804041Y1424920D01*
X804004Y1424932D01*
X803964Y1424931D01*
X803910Y1424939D01*
X801370Y1424939D01*
X801305Y1424928D01*
X801239Y1424926D01*
X801196Y1424908D01*
X801149Y1424900D01*
X801092Y1424866D01*
X801032Y1424841D01*
X800997Y1424810D01*
X800956Y1424785D01*
X800915Y1424734D01*
X800866Y1424690D01*
X800844Y1424648D01*
X800815Y1424611D01*
X800794Y1424549D01*
X800763Y1424490D01*
X800755Y1424436D01*
X800743Y1424399D01*
X800743Y1424395D01*
X800743Y1424394D01*
X800744Y1424359D01*
X800736Y1424305D01*
X800736Y1420495D01*
X800747Y1420430D01*
X800749Y1420364D01*
X800767Y1420321D01*
X800775Y1420274D01*
X800809Y1420217D01*
X800834Y1420157D01*
X800865Y1420122D01*
X800890Y1420081D01*
X800941Y1420040D01*
X800985Y1419991D01*
X801027Y1419969D01*
X801064Y1419940D01*
X801126Y1419919D01*
X801185Y1419888D01*
X801239Y1419880D01*
X801276Y1419868D01*
X801316Y1419869D01*
X801370Y1419861D01*
X803910Y1419861D01*
X803975Y1419872D01*
G37*
G36*
X803975Y568972D02*
X803975Y568972D01*
X804041Y568974D01*
X804084Y568992D01*
X804131Y569000D01*
X804188Y569034D01*
X804248Y569059D01*
X804283Y569090D01*
X804324Y569115D01*
X804366Y569166D01*
X804414Y569210D01*
X804436Y569252D01*
X804465Y569289D01*
X804486Y569351D01*
X804517Y569410D01*
X804525Y569464D01*
X804537Y569501D01*
X804536Y569541D01*
X804544Y569595D01*
X804544Y573405D01*
X804533Y573470D01*
X804531Y573536D01*
X804513Y573579D01*
X804505Y573626D01*
X804471Y573683D01*
X804446Y573743D01*
X804415Y573778D01*
X804390Y573819D01*
X804339Y573861D01*
X804295Y573909D01*
X804253Y573931D01*
X804216Y573960D01*
X804154Y573981D01*
X804095Y574012D01*
X804041Y574020D01*
X804004Y574032D01*
X803964Y574031D01*
X803910Y574039D01*
X801370Y574039D01*
X801305Y574028D01*
X801239Y574026D01*
X801196Y574008D01*
X801149Y574000D01*
X801092Y573966D01*
X801032Y573941D01*
X800997Y573910D01*
X800956Y573885D01*
X800915Y573834D01*
X800866Y573790D01*
X800844Y573748D01*
X800815Y573711D01*
X800794Y573649D01*
X800763Y573590D01*
X800755Y573536D01*
X800743Y573499D01*
X800743Y573495D01*
X800743Y573494D01*
X800744Y573459D01*
X800736Y573405D01*
X800736Y569595D01*
X800747Y569530D01*
X800749Y569464D01*
X800767Y569421D01*
X800775Y569374D01*
X800809Y569317D01*
X800834Y569257D01*
X800865Y569222D01*
X800890Y569181D01*
X800941Y569140D01*
X800985Y569091D01*
X801027Y569069D01*
X801064Y569040D01*
X801126Y569019D01*
X801185Y568988D01*
X801239Y568980D01*
X801276Y568968D01*
X801316Y568969D01*
X801370Y568961D01*
X803910Y568961D01*
X803975Y568972D01*
G37*
G36*
X285815Y568972D02*
X285815Y568972D01*
X285881Y568974D01*
X285924Y568992D01*
X285971Y569000D01*
X286028Y569034D01*
X286088Y569059D01*
X286123Y569090D01*
X286164Y569115D01*
X286206Y569166D01*
X286254Y569210D01*
X286276Y569252D01*
X286305Y569289D01*
X286326Y569351D01*
X286357Y569410D01*
X286365Y569464D01*
X286377Y569501D01*
X286376Y569541D01*
X286384Y569595D01*
X286384Y573405D01*
X286373Y573470D01*
X286371Y573536D01*
X286353Y573579D01*
X286345Y573626D01*
X286311Y573683D01*
X286286Y573743D01*
X286255Y573778D01*
X286230Y573819D01*
X286179Y573861D01*
X286135Y573909D01*
X286093Y573931D01*
X286056Y573960D01*
X285994Y573981D01*
X285935Y574012D01*
X285881Y574020D01*
X285844Y574032D01*
X285804Y574031D01*
X285750Y574039D01*
X283210Y574039D01*
X283145Y574028D01*
X283079Y574026D01*
X283036Y574008D01*
X282989Y574000D01*
X282932Y573966D01*
X282872Y573941D01*
X282837Y573910D01*
X282796Y573885D01*
X282755Y573834D01*
X282706Y573790D01*
X282684Y573748D01*
X282655Y573711D01*
X282634Y573649D01*
X282603Y573590D01*
X282595Y573536D01*
X282583Y573499D01*
X282583Y573495D01*
X282583Y573494D01*
X282584Y573459D01*
X282576Y573405D01*
X282576Y569595D01*
X282587Y569530D01*
X282589Y569464D01*
X282607Y569421D01*
X282615Y569374D01*
X282649Y569317D01*
X282674Y569257D01*
X282705Y569222D01*
X282730Y569181D01*
X282781Y569140D01*
X282825Y569091D01*
X282867Y569069D01*
X282904Y569040D01*
X282966Y569019D01*
X283025Y568988D01*
X283079Y568980D01*
X283116Y568968D01*
X283156Y568969D01*
X283210Y568961D01*
X285750Y568961D01*
X285815Y568972D01*
G37*
G36*
X544895Y568972D02*
X544895Y568972D01*
X544961Y568974D01*
X545004Y568992D01*
X545051Y569000D01*
X545108Y569034D01*
X545168Y569059D01*
X545203Y569090D01*
X545244Y569115D01*
X545286Y569166D01*
X545334Y569210D01*
X545356Y569252D01*
X545385Y569289D01*
X545406Y569351D01*
X545437Y569410D01*
X545445Y569464D01*
X545457Y569501D01*
X545456Y569541D01*
X545464Y569595D01*
X545464Y573405D01*
X545453Y573470D01*
X545451Y573536D01*
X545433Y573579D01*
X545425Y573626D01*
X545391Y573683D01*
X545366Y573743D01*
X545335Y573778D01*
X545310Y573819D01*
X545259Y573861D01*
X545215Y573909D01*
X545173Y573931D01*
X545136Y573960D01*
X545074Y573981D01*
X545015Y574012D01*
X544961Y574020D01*
X544924Y574032D01*
X544884Y574031D01*
X544830Y574039D01*
X542290Y574039D01*
X542225Y574028D01*
X542159Y574026D01*
X542116Y574008D01*
X542069Y574000D01*
X542012Y573966D01*
X541952Y573941D01*
X541917Y573910D01*
X541876Y573885D01*
X541835Y573834D01*
X541786Y573790D01*
X541764Y573748D01*
X541735Y573711D01*
X541714Y573649D01*
X541683Y573590D01*
X541675Y573536D01*
X541663Y573499D01*
X541663Y573495D01*
X541663Y573494D01*
X541664Y573459D01*
X541656Y573405D01*
X541656Y569595D01*
X541667Y569530D01*
X541669Y569464D01*
X541687Y569421D01*
X541695Y569374D01*
X541729Y569317D01*
X541754Y569257D01*
X541785Y569222D01*
X541810Y569181D01*
X541861Y569140D01*
X541905Y569091D01*
X541947Y569069D01*
X541984Y569040D01*
X542046Y569019D01*
X542105Y568988D01*
X542159Y568980D01*
X542196Y568968D01*
X542236Y568969D01*
X542290Y568961D01*
X544830Y568961D01*
X544895Y568972D01*
G37*
G36*
X26735Y568972D02*
X26735Y568972D01*
X26801Y568974D01*
X26844Y568992D01*
X26891Y569000D01*
X26948Y569034D01*
X27008Y569059D01*
X27043Y569090D01*
X27084Y569115D01*
X27126Y569166D01*
X27174Y569210D01*
X27196Y569252D01*
X27225Y569289D01*
X27246Y569351D01*
X27277Y569410D01*
X27285Y569464D01*
X27297Y569501D01*
X27296Y569541D01*
X27304Y569595D01*
X27304Y573405D01*
X27293Y573470D01*
X27291Y573536D01*
X27273Y573579D01*
X27265Y573626D01*
X27231Y573683D01*
X27206Y573743D01*
X27175Y573778D01*
X27150Y573819D01*
X27099Y573861D01*
X27055Y573909D01*
X27013Y573931D01*
X26976Y573960D01*
X26914Y573981D01*
X26855Y574012D01*
X26801Y574020D01*
X26764Y574032D01*
X26724Y574031D01*
X26670Y574039D01*
X24130Y574039D01*
X24065Y574028D01*
X23999Y574026D01*
X23956Y574008D01*
X23909Y574000D01*
X23852Y573966D01*
X23792Y573941D01*
X23757Y573910D01*
X23716Y573885D01*
X23675Y573834D01*
X23626Y573790D01*
X23604Y573748D01*
X23575Y573711D01*
X23554Y573649D01*
X23523Y573590D01*
X23515Y573536D01*
X23503Y573499D01*
X23503Y573495D01*
X23503Y573494D01*
X23504Y573459D01*
X23496Y573405D01*
X23496Y569595D01*
X23507Y569530D01*
X23509Y569464D01*
X23527Y569421D01*
X23535Y569374D01*
X23569Y569317D01*
X23594Y569257D01*
X23625Y569222D01*
X23650Y569181D01*
X23701Y569140D01*
X23745Y569091D01*
X23787Y569069D01*
X23824Y569040D01*
X23886Y569019D01*
X23945Y568988D01*
X23999Y568980D01*
X24036Y568968D01*
X24076Y568969D01*
X24130Y568961D01*
X26670Y568961D01*
X26735Y568972D01*
G37*
G36*
X135320Y258457D02*
X135320Y258457D01*
X135386Y258459D01*
X135429Y258477D01*
X135476Y258485D01*
X135533Y258519D01*
X135593Y258544D01*
X135628Y258575D01*
X135669Y258600D01*
X135711Y258651D01*
X135759Y258695D01*
X135781Y258737D01*
X135810Y258774D01*
X135831Y258836D01*
X135862Y258895D01*
X135870Y258949D01*
X135882Y258986D01*
X135881Y259026D01*
X135889Y259080D01*
X135889Y261620D01*
X135878Y261685D01*
X135876Y261751D01*
X135858Y261794D01*
X135850Y261841D01*
X135816Y261898D01*
X135791Y261958D01*
X135760Y261993D01*
X135735Y262034D01*
X135684Y262076D01*
X135640Y262124D01*
X135598Y262146D01*
X135561Y262175D01*
X135499Y262196D01*
X135440Y262227D01*
X135386Y262235D01*
X135349Y262247D01*
X135309Y262246D01*
X135255Y262254D01*
X131445Y262254D01*
X131380Y262243D01*
X131314Y262241D01*
X131271Y262223D01*
X131224Y262215D01*
X131167Y262181D01*
X131107Y262156D01*
X131072Y262125D01*
X131031Y262100D01*
X130990Y262049D01*
X130941Y262005D01*
X130919Y261963D01*
X130890Y261926D01*
X130869Y261864D01*
X130838Y261805D01*
X130830Y261751D01*
X130818Y261714D01*
X130818Y261711D01*
X130819Y261674D01*
X130811Y261620D01*
X130811Y259080D01*
X130822Y259015D01*
X130824Y258949D01*
X130842Y258906D01*
X130850Y258859D01*
X130884Y258802D01*
X130909Y258742D01*
X130940Y258707D01*
X130965Y258666D01*
X131016Y258625D01*
X131060Y258576D01*
X131102Y258554D01*
X131139Y258525D01*
X131201Y258504D01*
X131260Y258473D01*
X131314Y258465D01*
X131351Y258453D01*
X131391Y258454D01*
X131445Y258446D01*
X135255Y258446D01*
X135320Y258457D01*
G37*
G36*
X394400Y258457D02*
X394400Y258457D01*
X394466Y258459D01*
X394509Y258477D01*
X394556Y258485D01*
X394613Y258519D01*
X394673Y258544D01*
X394708Y258575D01*
X394749Y258600D01*
X394791Y258651D01*
X394839Y258695D01*
X394861Y258737D01*
X394890Y258774D01*
X394911Y258836D01*
X394942Y258895D01*
X394950Y258949D01*
X394962Y258986D01*
X394961Y259026D01*
X394969Y259080D01*
X394969Y261620D01*
X394958Y261685D01*
X394956Y261751D01*
X394938Y261794D01*
X394930Y261841D01*
X394896Y261898D01*
X394871Y261958D01*
X394840Y261993D01*
X394815Y262034D01*
X394764Y262076D01*
X394720Y262124D01*
X394678Y262146D01*
X394641Y262175D01*
X394579Y262196D01*
X394520Y262227D01*
X394466Y262235D01*
X394429Y262247D01*
X394389Y262246D01*
X394335Y262254D01*
X390525Y262254D01*
X390460Y262243D01*
X390394Y262241D01*
X390351Y262223D01*
X390304Y262215D01*
X390247Y262181D01*
X390187Y262156D01*
X390152Y262125D01*
X390111Y262100D01*
X390070Y262049D01*
X390021Y262005D01*
X389999Y261963D01*
X389970Y261926D01*
X389949Y261864D01*
X389918Y261805D01*
X389910Y261751D01*
X389898Y261714D01*
X389898Y261711D01*
X389899Y261674D01*
X389891Y261620D01*
X389891Y259080D01*
X389902Y259015D01*
X389904Y258949D01*
X389922Y258906D01*
X389930Y258859D01*
X389964Y258802D01*
X389989Y258742D01*
X390020Y258707D01*
X390045Y258666D01*
X390096Y258625D01*
X390140Y258576D01*
X390182Y258554D01*
X390219Y258525D01*
X390281Y258504D01*
X390340Y258473D01*
X390394Y258465D01*
X390431Y258453D01*
X390471Y258454D01*
X390525Y258446D01*
X394335Y258446D01*
X394400Y258457D01*
G37*
G36*
X653480Y258457D02*
X653480Y258457D01*
X653546Y258459D01*
X653589Y258477D01*
X653636Y258485D01*
X653693Y258519D01*
X653753Y258544D01*
X653788Y258575D01*
X653829Y258600D01*
X653871Y258651D01*
X653919Y258695D01*
X653941Y258737D01*
X653970Y258774D01*
X653991Y258836D01*
X654022Y258895D01*
X654030Y258949D01*
X654042Y258986D01*
X654041Y259026D01*
X654049Y259080D01*
X654049Y261620D01*
X654038Y261685D01*
X654036Y261751D01*
X654018Y261794D01*
X654010Y261841D01*
X653976Y261898D01*
X653951Y261958D01*
X653920Y261993D01*
X653895Y262034D01*
X653844Y262076D01*
X653800Y262124D01*
X653758Y262146D01*
X653721Y262175D01*
X653659Y262196D01*
X653600Y262227D01*
X653546Y262235D01*
X653509Y262247D01*
X653469Y262246D01*
X653415Y262254D01*
X649605Y262254D01*
X649540Y262243D01*
X649474Y262241D01*
X649431Y262223D01*
X649384Y262215D01*
X649327Y262181D01*
X649267Y262156D01*
X649232Y262125D01*
X649191Y262100D01*
X649150Y262049D01*
X649101Y262005D01*
X649079Y261963D01*
X649050Y261926D01*
X649029Y261864D01*
X648998Y261805D01*
X648990Y261751D01*
X648978Y261714D01*
X648978Y261711D01*
X648979Y261674D01*
X648971Y261620D01*
X648971Y259080D01*
X648982Y259015D01*
X648984Y258949D01*
X649002Y258906D01*
X649010Y258859D01*
X649044Y258802D01*
X649069Y258742D01*
X649100Y258707D01*
X649125Y258666D01*
X649176Y258625D01*
X649220Y258576D01*
X649262Y258554D01*
X649299Y258525D01*
X649361Y258504D01*
X649420Y258473D01*
X649474Y258465D01*
X649511Y258453D01*
X649551Y258454D01*
X649605Y258446D01*
X653415Y258446D01*
X653480Y258457D01*
G37*
G36*
X912560Y258457D02*
X912560Y258457D01*
X912626Y258459D01*
X912669Y258477D01*
X912716Y258485D01*
X912773Y258519D01*
X912833Y258544D01*
X912868Y258575D01*
X912909Y258600D01*
X912951Y258651D01*
X912999Y258695D01*
X913021Y258737D01*
X913050Y258774D01*
X913071Y258836D01*
X913102Y258895D01*
X913110Y258949D01*
X913122Y258986D01*
X913121Y259026D01*
X913129Y259080D01*
X913129Y261620D01*
X913118Y261685D01*
X913116Y261751D01*
X913098Y261794D01*
X913090Y261841D01*
X913056Y261898D01*
X913031Y261958D01*
X913000Y261993D01*
X912975Y262034D01*
X912924Y262076D01*
X912880Y262124D01*
X912838Y262146D01*
X912801Y262175D01*
X912739Y262196D01*
X912680Y262227D01*
X912626Y262235D01*
X912589Y262247D01*
X912549Y262246D01*
X912495Y262254D01*
X908685Y262254D01*
X908620Y262243D01*
X908554Y262241D01*
X908511Y262223D01*
X908464Y262215D01*
X908407Y262181D01*
X908347Y262156D01*
X908312Y262125D01*
X908271Y262100D01*
X908230Y262049D01*
X908181Y262005D01*
X908159Y261963D01*
X908130Y261926D01*
X908109Y261864D01*
X908078Y261805D01*
X908070Y261751D01*
X908058Y261714D01*
X908058Y261711D01*
X908059Y261674D01*
X908051Y261620D01*
X908051Y259080D01*
X908062Y259015D01*
X908064Y258949D01*
X908082Y258906D01*
X908090Y258859D01*
X908124Y258802D01*
X908149Y258742D01*
X908180Y258707D01*
X908205Y258666D01*
X908256Y258625D01*
X908300Y258576D01*
X908342Y258554D01*
X908379Y258525D01*
X908441Y258504D01*
X908500Y258473D01*
X908554Y258465D01*
X908591Y258453D01*
X908631Y258454D01*
X908685Y258446D01*
X912495Y258446D01*
X912560Y258457D01*
G37*
G36*
X912560Y1109357D02*
X912560Y1109357D01*
X912626Y1109359D01*
X912669Y1109377D01*
X912716Y1109385D01*
X912773Y1109419D01*
X912833Y1109444D01*
X912868Y1109475D01*
X912909Y1109500D01*
X912951Y1109551D01*
X912999Y1109595D01*
X913021Y1109637D01*
X913050Y1109674D01*
X913071Y1109736D01*
X913102Y1109795D01*
X913110Y1109849D01*
X913122Y1109886D01*
X913121Y1109926D01*
X913129Y1109980D01*
X913129Y1112520D01*
X913118Y1112585D01*
X913116Y1112651D01*
X913098Y1112694D01*
X913090Y1112741D01*
X913056Y1112798D01*
X913031Y1112858D01*
X913000Y1112893D01*
X912975Y1112934D01*
X912924Y1112976D01*
X912880Y1113024D01*
X912838Y1113046D01*
X912801Y1113075D01*
X912739Y1113096D01*
X912680Y1113127D01*
X912626Y1113135D01*
X912589Y1113147D01*
X912549Y1113146D01*
X912495Y1113154D01*
X908685Y1113154D01*
X908620Y1113143D01*
X908554Y1113141D01*
X908511Y1113123D01*
X908464Y1113115D01*
X908407Y1113081D01*
X908347Y1113056D01*
X908312Y1113025D01*
X908271Y1113000D01*
X908230Y1112949D01*
X908181Y1112905D01*
X908159Y1112863D01*
X908130Y1112826D01*
X908109Y1112764D01*
X908078Y1112705D01*
X908070Y1112651D01*
X908058Y1112614D01*
X908058Y1112611D01*
X908059Y1112574D01*
X908051Y1112520D01*
X908051Y1109980D01*
X908062Y1109915D01*
X908064Y1109849D01*
X908082Y1109806D01*
X908090Y1109759D01*
X908124Y1109702D01*
X908149Y1109642D01*
X908180Y1109607D01*
X908205Y1109566D01*
X908256Y1109525D01*
X908300Y1109476D01*
X908342Y1109454D01*
X908379Y1109425D01*
X908441Y1109404D01*
X908500Y1109373D01*
X908554Y1109365D01*
X908591Y1109353D01*
X908631Y1109354D01*
X908685Y1109346D01*
X912495Y1109346D01*
X912560Y1109357D01*
G37*
G36*
X653480Y1109357D02*
X653480Y1109357D01*
X653546Y1109359D01*
X653589Y1109377D01*
X653636Y1109385D01*
X653693Y1109419D01*
X653753Y1109444D01*
X653788Y1109475D01*
X653829Y1109500D01*
X653871Y1109551D01*
X653919Y1109595D01*
X653941Y1109637D01*
X653970Y1109674D01*
X653991Y1109736D01*
X654022Y1109795D01*
X654030Y1109849D01*
X654042Y1109886D01*
X654041Y1109926D01*
X654049Y1109980D01*
X654049Y1112520D01*
X654038Y1112585D01*
X654036Y1112651D01*
X654018Y1112694D01*
X654010Y1112741D01*
X653976Y1112798D01*
X653951Y1112858D01*
X653920Y1112893D01*
X653895Y1112934D01*
X653844Y1112976D01*
X653800Y1113024D01*
X653758Y1113046D01*
X653721Y1113075D01*
X653659Y1113096D01*
X653600Y1113127D01*
X653546Y1113135D01*
X653509Y1113147D01*
X653469Y1113146D01*
X653415Y1113154D01*
X649605Y1113154D01*
X649540Y1113143D01*
X649474Y1113141D01*
X649431Y1113123D01*
X649384Y1113115D01*
X649327Y1113081D01*
X649267Y1113056D01*
X649232Y1113025D01*
X649191Y1113000D01*
X649150Y1112949D01*
X649101Y1112905D01*
X649079Y1112863D01*
X649050Y1112826D01*
X649029Y1112764D01*
X648998Y1112705D01*
X648990Y1112651D01*
X648978Y1112614D01*
X648978Y1112611D01*
X648979Y1112574D01*
X648971Y1112520D01*
X648971Y1109980D01*
X648982Y1109915D01*
X648984Y1109849D01*
X649002Y1109806D01*
X649010Y1109759D01*
X649044Y1109702D01*
X649069Y1109642D01*
X649100Y1109607D01*
X649125Y1109566D01*
X649176Y1109525D01*
X649220Y1109476D01*
X649262Y1109454D01*
X649299Y1109425D01*
X649361Y1109404D01*
X649420Y1109373D01*
X649474Y1109365D01*
X649511Y1109353D01*
X649551Y1109354D01*
X649605Y1109346D01*
X653415Y1109346D01*
X653480Y1109357D01*
G37*
G36*
X394400Y1109357D02*
X394400Y1109357D01*
X394466Y1109359D01*
X394509Y1109377D01*
X394556Y1109385D01*
X394613Y1109419D01*
X394673Y1109444D01*
X394708Y1109475D01*
X394749Y1109500D01*
X394791Y1109551D01*
X394839Y1109595D01*
X394861Y1109637D01*
X394890Y1109674D01*
X394911Y1109736D01*
X394942Y1109795D01*
X394950Y1109849D01*
X394962Y1109886D01*
X394961Y1109926D01*
X394969Y1109980D01*
X394969Y1112520D01*
X394958Y1112585D01*
X394956Y1112651D01*
X394938Y1112694D01*
X394930Y1112741D01*
X394896Y1112798D01*
X394871Y1112858D01*
X394840Y1112893D01*
X394815Y1112934D01*
X394764Y1112976D01*
X394720Y1113024D01*
X394678Y1113046D01*
X394641Y1113075D01*
X394579Y1113096D01*
X394520Y1113127D01*
X394466Y1113135D01*
X394429Y1113147D01*
X394389Y1113146D01*
X394335Y1113154D01*
X390525Y1113154D01*
X390460Y1113143D01*
X390394Y1113141D01*
X390351Y1113123D01*
X390304Y1113115D01*
X390247Y1113081D01*
X390187Y1113056D01*
X390152Y1113025D01*
X390111Y1113000D01*
X390070Y1112949D01*
X390021Y1112905D01*
X389999Y1112863D01*
X389970Y1112826D01*
X389949Y1112764D01*
X389918Y1112705D01*
X389910Y1112651D01*
X389898Y1112614D01*
X389898Y1112611D01*
X389899Y1112574D01*
X389891Y1112520D01*
X389891Y1109980D01*
X389902Y1109915D01*
X389904Y1109849D01*
X389922Y1109806D01*
X389930Y1109759D01*
X389964Y1109702D01*
X389989Y1109642D01*
X390020Y1109607D01*
X390045Y1109566D01*
X390096Y1109525D01*
X390140Y1109476D01*
X390182Y1109454D01*
X390219Y1109425D01*
X390281Y1109404D01*
X390340Y1109373D01*
X390394Y1109365D01*
X390431Y1109353D01*
X390471Y1109354D01*
X390525Y1109346D01*
X394335Y1109346D01*
X394400Y1109357D01*
G37*
G36*
X135320Y1109357D02*
X135320Y1109357D01*
X135386Y1109359D01*
X135429Y1109377D01*
X135476Y1109385D01*
X135533Y1109419D01*
X135593Y1109444D01*
X135628Y1109475D01*
X135669Y1109500D01*
X135711Y1109551D01*
X135759Y1109595D01*
X135781Y1109637D01*
X135810Y1109674D01*
X135831Y1109736D01*
X135862Y1109795D01*
X135870Y1109849D01*
X135882Y1109886D01*
X135881Y1109926D01*
X135889Y1109980D01*
X135889Y1112520D01*
X135878Y1112585D01*
X135876Y1112651D01*
X135858Y1112694D01*
X135850Y1112741D01*
X135816Y1112798D01*
X135791Y1112858D01*
X135760Y1112893D01*
X135735Y1112934D01*
X135684Y1112976D01*
X135640Y1113024D01*
X135598Y1113046D01*
X135561Y1113075D01*
X135499Y1113096D01*
X135440Y1113127D01*
X135386Y1113135D01*
X135349Y1113147D01*
X135309Y1113146D01*
X135255Y1113154D01*
X131445Y1113154D01*
X131380Y1113143D01*
X131314Y1113141D01*
X131271Y1113123D01*
X131224Y1113115D01*
X131167Y1113081D01*
X131107Y1113056D01*
X131072Y1113025D01*
X131031Y1113000D01*
X130990Y1112949D01*
X130941Y1112905D01*
X130919Y1112863D01*
X130890Y1112826D01*
X130869Y1112764D01*
X130838Y1112705D01*
X130830Y1112651D01*
X130818Y1112614D01*
X130818Y1112611D01*
X130819Y1112574D01*
X130811Y1112520D01*
X130811Y1109980D01*
X130822Y1109915D01*
X130824Y1109849D01*
X130842Y1109806D01*
X130850Y1109759D01*
X130884Y1109702D01*
X130909Y1109642D01*
X130940Y1109607D01*
X130965Y1109566D01*
X131016Y1109525D01*
X131060Y1109476D01*
X131102Y1109454D01*
X131139Y1109425D01*
X131201Y1109404D01*
X131260Y1109373D01*
X131314Y1109365D01*
X131351Y1109353D01*
X131391Y1109354D01*
X131445Y1109346D01*
X135255Y1109346D01*
X135320Y1109357D01*
G37*
G36*
X394400Y1077607D02*
X394400Y1077607D01*
X394466Y1077609D01*
X394509Y1077627D01*
X394556Y1077635D01*
X394613Y1077669D01*
X394673Y1077694D01*
X394708Y1077725D01*
X394749Y1077750D01*
X394791Y1077801D01*
X394839Y1077845D01*
X394861Y1077887D01*
X394890Y1077924D01*
X394911Y1077986D01*
X394942Y1078045D01*
X394950Y1078099D01*
X394962Y1078136D01*
X394961Y1078176D01*
X394969Y1078230D01*
X394969Y1080770D01*
X394958Y1080835D01*
X394956Y1080901D01*
X394938Y1080944D01*
X394930Y1080991D01*
X394896Y1081048D01*
X394871Y1081108D01*
X394840Y1081143D01*
X394815Y1081184D01*
X394764Y1081226D01*
X394720Y1081274D01*
X394678Y1081296D01*
X394641Y1081325D01*
X394579Y1081346D01*
X394520Y1081377D01*
X394466Y1081385D01*
X394429Y1081397D01*
X394389Y1081396D01*
X394335Y1081404D01*
X390525Y1081404D01*
X390460Y1081393D01*
X390394Y1081391D01*
X390351Y1081373D01*
X390304Y1081365D01*
X390247Y1081331D01*
X390187Y1081306D01*
X390152Y1081275D01*
X390111Y1081250D01*
X390070Y1081199D01*
X390021Y1081155D01*
X389999Y1081113D01*
X389970Y1081076D01*
X389949Y1081014D01*
X389918Y1080955D01*
X389910Y1080901D01*
X389898Y1080864D01*
X389898Y1080861D01*
X389899Y1080824D01*
X389891Y1080770D01*
X389891Y1078230D01*
X389902Y1078165D01*
X389904Y1078099D01*
X389922Y1078056D01*
X389930Y1078009D01*
X389964Y1077952D01*
X389989Y1077892D01*
X390020Y1077857D01*
X390045Y1077816D01*
X390096Y1077775D01*
X390140Y1077726D01*
X390182Y1077704D01*
X390219Y1077675D01*
X390281Y1077654D01*
X390340Y1077623D01*
X390394Y1077615D01*
X390431Y1077603D01*
X390471Y1077604D01*
X390525Y1077596D01*
X394335Y1077596D01*
X394400Y1077607D01*
G37*
G36*
X912560Y1077607D02*
X912560Y1077607D01*
X912626Y1077609D01*
X912669Y1077627D01*
X912716Y1077635D01*
X912773Y1077669D01*
X912833Y1077694D01*
X912868Y1077725D01*
X912909Y1077750D01*
X912951Y1077801D01*
X912999Y1077845D01*
X913021Y1077887D01*
X913050Y1077924D01*
X913071Y1077986D01*
X913102Y1078045D01*
X913110Y1078099D01*
X913122Y1078136D01*
X913121Y1078176D01*
X913129Y1078230D01*
X913129Y1080770D01*
X913118Y1080835D01*
X913116Y1080901D01*
X913098Y1080944D01*
X913090Y1080991D01*
X913056Y1081048D01*
X913031Y1081108D01*
X913000Y1081143D01*
X912975Y1081184D01*
X912924Y1081226D01*
X912880Y1081274D01*
X912838Y1081296D01*
X912801Y1081325D01*
X912739Y1081346D01*
X912680Y1081377D01*
X912626Y1081385D01*
X912589Y1081397D01*
X912549Y1081396D01*
X912495Y1081404D01*
X908685Y1081404D01*
X908620Y1081393D01*
X908554Y1081391D01*
X908511Y1081373D01*
X908464Y1081365D01*
X908407Y1081331D01*
X908347Y1081306D01*
X908312Y1081275D01*
X908271Y1081250D01*
X908230Y1081199D01*
X908181Y1081155D01*
X908159Y1081113D01*
X908130Y1081076D01*
X908109Y1081014D01*
X908078Y1080955D01*
X908070Y1080901D01*
X908058Y1080864D01*
X908058Y1080861D01*
X908059Y1080824D01*
X908051Y1080770D01*
X908051Y1078230D01*
X908062Y1078165D01*
X908064Y1078099D01*
X908082Y1078056D01*
X908090Y1078009D01*
X908124Y1077952D01*
X908149Y1077892D01*
X908180Y1077857D01*
X908205Y1077816D01*
X908256Y1077775D01*
X908300Y1077726D01*
X908342Y1077704D01*
X908379Y1077675D01*
X908441Y1077654D01*
X908500Y1077623D01*
X908554Y1077615D01*
X908591Y1077603D01*
X908631Y1077604D01*
X908685Y1077596D01*
X912495Y1077596D01*
X912560Y1077607D01*
G37*
G36*
X653480Y1077607D02*
X653480Y1077607D01*
X653546Y1077609D01*
X653589Y1077627D01*
X653636Y1077635D01*
X653693Y1077669D01*
X653753Y1077694D01*
X653788Y1077725D01*
X653829Y1077750D01*
X653871Y1077801D01*
X653919Y1077845D01*
X653941Y1077887D01*
X653970Y1077924D01*
X653991Y1077986D01*
X654022Y1078045D01*
X654030Y1078099D01*
X654042Y1078136D01*
X654041Y1078176D01*
X654049Y1078230D01*
X654049Y1080770D01*
X654038Y1080835D01*
X654036Y1080901D01*
X654018Y1080944D01*
X654010Y1080991D01*
X653976Y1081048D01*
X653951Y1081108D01*
X653920Y1081143D01*
X653895Y1081184D01*
X653844Y1081226D01*
X653800Y1081274D01*
X653758Y1081296D01*
X653721Y1081325D01*
X653659Y1081346D01*
X653600Y1081377D01*
X653546Y1081385D01*
X653509Y1081397D01*
X653469Y1081396D01*
X653415Y1081404D01*
X649605Y1081404D01*
X649540Y1081393D01*
X649474Y1081391D01*
X649431Y1081373D01*
X649384Y1081365D01*
X649327Y1081331D01*
X649267Y1081306D01*
X649232Y1081275D01*
X649191Y1081250D01*
X649150Y1081199D01*
X649101Y1081155D01*
X649079Y1081113D01*
X649050Y1081076D01*
X649029Y1081014D01*
X648998Y1080955D01*
X648990Y1080901D01*
X648978Y1080864D01*
X648978Y1080861D01*
X648979Y1080824D01*
X648971Y1080770D01*
X648971Y1078230D01*
X648982Y1078165D01*
X648984Y1078099D01*
X649002Y1078056D01*
X649010Y1078009D01*
X649044Y1077952D01*
X649069Y1077892D01*
X649100Y1077857D01*
X649125Y1077816D01*
X649176Y1077775D01*
X649220Y1077726D01*
X649262Y1077704D01*
X649299Y1077675D01*
X649361Y1077654D01*
X649420Y1077623D01*
X649474Y1077615D01*
X649511Y1077603D01*
X649551Y1077604D01*
X649605Y1077596D01*
X653415Y1077596D01*
X653480Y1077607D01*
G37*
G36*
X135320Y1077607D02*
X135320Y1077607D01*
X135386Y1077609D01*
X135429Y1077627D01*
X135476Y1077635D01*
X135533Y1077669D01*
X135593Y1077694D01*
X135628Y1077725D01*
X135669Y1077750D01*
X135711Y1077801D01*
X135759Y1077845D01*
X135781Y1077887D01*
X135810Y1077924D01*
X135831Y1077986D01*
X135862Y1078045D01*
X135870Y1078099D01*
X135882Y1078136D01*
X135881Y1078176D01*
X135889Y1078230D01*
X135889Y1080770D01*
X135878Y1080835D01*
X135876Y1080901D01*
X135858Y1080944D01*
X135850Y1080991D01*
X135816Y1081048D01*
X135791Y1081108D01*
X135760Y1081143D01*
X135735Y1081184D01*
X135684Y1081226D01*
X135640Y1081274D01*
X135598Y1081296D01*
X135561Y1081325D01*
X135499Y1081346D01*
X135440Y1081377D01*
X135386Y1081385D01*
X135349Y1081397D01*
X135309Y1081396D01*
X135255Y1081404D01*
X131445Y1081404D01*
X131380Y1081393D01*
X131314Y1081391D01*
X131271Y1081373D01*
X131224Y1081365D01*
X131167Y1081331D01*
X131107Y1081306D01*
X131072Y1081275D01*
X131031Y1081250D01*
X130990Y1081199D01*
X130941Y1081155D01*
X130919Y1081113D01*
X130890Y1081076D01*
X130869Y1081014D01*
X130838Y1080955D01*
X130830Y1080901D01*
X130818Y1080864D01*
X130818Y1080861D01*
X130819Y1080824D01*
X130811Y1080770D01*
X130811Y1078230D01*
X130822Y1078165D01*
X130824Y1078099D01*
X130842Y1078056D01*
X130850Y1078009D01*
X130884Y1077952D01*
X130909Y1077892D01*
X130940Y1077857D01*
X130965Y1077816D01*
X131016Y1077775D01*
X131060Y1077726D01*
X131102Y1077704D01*
X131139Y1077675D01*
X131201Y1077654D01*
X131260Y1077623D01*
X131314Y1077615D01*
X131351Y1077603D01*
X131391Y1077604D01*
X131445Y1077596D01*
X135255Y1077596D01*
X135320Y1077607D01*
G37*
G36*
X153100Y861707D02*
X153100Y861707D01*
X153166Y861709D01*
X153209Y861727D01*
X153256Y861735D01*
X153313Y861769D01*
X153373Y861794D01*
X153408Y861825D01*
X153449Y861850D01*
X153491Y861901D01*
X153539Y861945D01*
X153561Y861987D01*
X153590Y862024D01*
X153611Y862086D01*
X153642Y862145D01*
X153650Y862199D01*
X153662Y862236D01*
X153661Y862276D01*
X153669Y862330D01*
X153669Y864870D01*
X153658Y864935D01*
X153656Y865001D01*
X153638Y865044D01*
X153630Y865091D01*
X153596Y865148D01*
X153571Y865208D01*
X153540Y865243D01*
X153515Y865284D01*
X153464Y865326D01*
X153420Y865374D01*
X153378Y865396D01*
X153341Y865425D01*
X153279Y865446D01*
X153220Y865477D01*
X153166Y865485D01*
X153129Y865497D01*
X153089Y865496D01*
X153035Y865504D01*
X149225Y865504D01*
X149160Y865493D01*
X149094Y865491D01*
X149051Y865473D01*
X149004Y865465D01*
X148947Y865431D01*
X148887Y865406D01*
X148852Y865375D01*
X148811Y865350D01*
X148770Y865299D01*
X148721Y865255D01*
X148699Y865213D01*
X148670Y865176D01*
X148649Y865114D01*
X148618Y865055D01*
X148610Y865001D01*
X148598Y864964D01*
X148598Y864961D01*
X148599Y864924D01*
X148591Y864870D01*
X148591Y862330D01*
X148602Y862265D01*
X148604Y862199D01*
X148622Y862156D01*
X148630Y862109D01*
X148664Y862052D01*
X148689Y861992D01*
X148720Y861957D01*
X148745Y861916D01*
X148796Y861875D01*
X148840Y861826D01*
X148882Y861804D01*
X148919Y861775D01*
X148981Y861754D01*
X149040Y861723D01*
X149094Y861715D01*
X149131Y861703D01*
X149171Y861704D01*
X149225Y861696D01*
X153035Y861696D01*
X153100Y861707D01*
G37*
G36*
X930340Y861707D02*
X930340Y861707D01*
X930406Y861709D01*
X930449Y861727D01*
X930496Y861735D01*
X930553Y861769D01*
X930613Y861794D01*
X930648Y861825D01*
X930689Y861850D01*
X930731Y861901D01*
X930779Y861945D01*
X930801Y861987D01*
X930830Y862024D01*
X930851Y862086D01*
X930882Y862145D01*
X930890Y862199D01*
X930902Y862236D01*
X930901Y862276D01*
X930909Y862330D01*
X930909Y864870D01*
X930898Y864935D01*
X930896Y865001D01*
X930878Y865044D01*
X930870Y865091D01*
X930836Y865148D01*
X930811Y865208D01*
X930780Y865243D01*
X930755Y865284D01*
X930704Y865326D01*
X930660Y865374D01*
X930618Y865396D01*
X930581Y865425D01*
X930519Y865446D01*
X930460Y865477D01*
X930406Y865485D01*
X930369Y865497D01*
X930329Y865496D01*
X930275Y865504D01*
X926465Y865504D01*
X926400Y865493D01*
X926334Y865491D01*
X926291Y865473D01*
X926244Y865465D01*
X926187Y865431D01*
X926127Y865406D01*
X926092Y865375D01*
X926051Y865350D01*
X926010Y865299D01*
X925961Y865255D01*
X925939Y865213D01*
X925910Y865176D01*
X925889Y865114D01*
X925858Y865055D01*
X925850Y865001D01*
X925838Y864964D01*
X925838Y864961D01*
X925839Y864924D01*
X925831Y864870D01*
X925831Y862330D01*
X925842Y862265D01*
X925844Y862199D01*
X925862Y862156D01*
X925870Y862109D01*
X925904Y862052D01*
X925929Y861992D01*
X925960Y861957D01*
X925985Y861916D01*
X926036Y861875D01*
X926080Y861826D01*
X926122Y861804D01*
X926159Y861775D01*
X926221Y861754D01*
X926280Y861723D01*
X926334Y861715D01*
X926371Y861703D01*
X926411Y861704D01*
X926465Y861696D01*
X930275Y861696D01*
X930340Y861707D01*
G37*
G36*
X412180Y861707D02*
X412180Y861707D01*
X412246Y861709D01*
X412289Y861727D01*
X412336Y861735D01*
X412393Y861769D01*
X412453Y861794D01*
X412488Y861825D01*
X412529Y861850D01*
X412571Y861901D01*
X412619Y861945D01*
X412641Y861987D01*
X412670Y862024D01*
X412691Y862086D01*
X412722Y862145D01*
X412730Y862199D01*
X412742Y862236D01*
X412741Y862276D01*
X412749Y862330D01*
X412749Y864870D01*
X412738Y864935D01*
X412736Y865001D01*
X412718Y865044D01*
X412710Y865091D01*
X412676Y865148D01*
X412651Y865208D01*
X412620Y865243D01*
X412595Y865284D01*
X412544Y865326D01*
X412500Y865374D01*
X412458Y865396D01*
X412421Y865425D01*
X412359Y865446D01*
X412300Y865477D01*
X412246Y865485D01*
X412209Y865497D01*
X412169Y865496D01*
X412115Y865504D01*
X408305Y865504D01*
X408240Y865493D01*
X408174Y865491D01*
X408131Y865473D01*
X408084Y865465D01*
X408027Y865431D01*
X407967Y865406D01*
X407932Y865375D01*
X407891Y865350D01*
X407850Y865299D01*
X407801Y865255D01*
X407779Y865213D01*
X407750Y865176D01*
X407729Y865114D01*
X407698Y865055D01*
X407690Y865001D01*
X407678Y864964D01*
X407678Y864961D01*
X407679Y864924D01*
X407671Y864870D01*
X407671Y862330D01*
X407682Y862265D01*
X407684Y862199D01*
X407702Y862156D01*
X407710Y862109D01*
X407744Y862052D01*
X407769Y861992D01*
X407800Y861957D01*
X407825Y861916D01*
X407876Y861875D01*
X407920Y861826D01*
X407962Y861804D01*
X407999Y861775D01*
X408061Y861754D01*
X408120Y861723D01*
X408174Y861715D01*
X408211Y861703D01*
X408251Y861704D01*
X408305Y861696D01*
X412115Y861696D01*
X412180Y861707D01*
G37*
G36*
X671260Y861707D02*
X671260Y861707D01*
X671326Y861709D01*
X671369Y861727D01*
X671416Y861735D01*
X671473Y861769D01*
X671533Y861794D01*
X671568Y861825D01*
X671609Y861850D01*
X671651Y861901D01*
X671699Y861945D01*
X671721Y861987D01*
X671750Y862024D01*
X671771Y862086D01*
X671802Y862145D01*
X671810Y862199D01*
X671822Y862236D01*
X671821Y862276D01*
X671829Y862330D01*
X671829Y864870D01*
X671818Y864935D01*
X671816Y865001D01*
X671798Y865044D01*
X671790Y865091D01*
X671756Y865148D01*
X671731Y865208D01*
X671700Y865243D01*
X671675Y865284D01*
X671624Y865326D01*
X671580Y865374D01*
X671538Y865396D01*
X671501Y865425D01*
X671439Y865446D01*
X671380Y865477D01*
X671326Y865485D01*
X671289Y865497D01*
X671249Y865496D01*
X671195Y865504D01*
X667385Y865504D01*
X667320Y865493D01*
X667254Y865491D01*
X667211Y865473D01*
X667164Y865465D01*
X667107Y865431D01*
X667047Y865406D01*
X667012Y865375D01*
X666971Y865350D01*
X666930Y865299D01*
X666881Y865255D01*
X666859Y865213D01*
X666830Y865176D01*
X666809Y865114D01*
X666778Y865055D01*
X666770Y865001D01*
X666758Y864964D01*
X666758Y864961D01*
X666759Y864924D01*
X666751Y864870D01*
X666751Y862330D01*
X666762Y862265D01*
X666764Y862199D01*
X666782Y862156D01*
X666790Y862109D01*
X666824Y862052D01*
X666849Y861992D01*
X666880Y861957D01*
X666905Y861916D01*
X666956Y861875D01*
X667000Y861826D01*
X667042Y861804D01*
X667079Y861775D01*
X667141Y861754D01*
X667200Y861723D01*
X667254Y861715D01*
X667291Y861703D01*
X667331Y861704D01*
X667385Y861696D01*
X671195Y861696D01*
X671260Y861707D01*
G37*
G36*
X135320Y226707D02*
X135320Y226707D01*
X135386Y226709D01*
X135429Y226727D01*
X135476Y226735D01*
X135533Y226769D01*
X135593Y226794D01*
X135628Y226825D01*
X135669Y226850D01*
X135711Y226901D01*
X135759Y226945D01*
X135781Y226987D01*
X135810Y227024D01*
X135831Y227086D01*
X135862Y227145D01*
X135870Y227199D01*
X135882Y227236D01*
X135881Y227276D01*
X135889Y227330D01*
X135889Y229870D01*
X135878Y229935D01*
X135876Y230001D01*
X135858Y230044D01*
X135850Y230091D01*
X135816Y230148D01*
X135791Y230208D01*
X135760Y230243D01*
X135735Y230284D01*
X135684Y230326D01*
X135640Y230374D01*
X135598Y230396D01*
X135561Y230425D01*
X135499Y230446D01*
X135440Y230477D01*
X135386Y230485D01*
X135349Y230497D01*
X135309Y230496D01*
X135255Y230504D01*
X131445Y230504D01*
X131380Y230493D01*
X131314Y230491D01*
X131271Y230473D01*
X131224Y230465D01*
X131167Y230431D01*
X131107Y230406D01*
X131072Y230375D01*
X131031Y230350D01*
X130990Y230299D01*
X130941Y230255D01*
X130919Y230213D01*
X130890Y230176D01*
X130869Y230114D01*
X130838Y230055D01*
X130830Y230001D01*
X130818Y229964D01*
X130818Y229961D01*
X130819Y229924D01*
X130811Y229870D01*
X130811Y227330D01*
X130822Y227265D01*
X130824Y227199D01*
X130842Y227156D01*
X130850Y227109D01*
X130884Y227052D01*
X130909Y226992D01*
X130940Y226957D01*
X130965Y226916D01*
X131016Y226875D01*
X131060Y226826D01*
X131102Y226804D01*
X131139Y226775D01*
X131201Y226754D01*
X131260Y226723D01*
X131314Y226715D01*
X131351Y226703D01*
X131391Y226704D01*
X131445Y226696D01*
X135255Y226696D01*
X135320Y226707D01*
G37*
G36*
X653480Y226707D02*
X653480Y226707D01*
X653546Y226709D01*
X653589Y226727D01*
X653636Y226735D01*
X653693Y226769D01*
X653753Y226794D01*
X653788Y226825D01*
X653829Y226850D01*
X653871Y226901D01*
X653919Y226945D01*
X653941Y226987D01*
X653970Y227024D01*
X653991Y227086D01*
X654022Y227145D01*
X654030Y227199D01*
X654042Y227236D01*
X654041Y227276D01*
X654049Y227330D01*
X654049Y229870D01*
X654038Y229935D01*
X654036Y230001D01*
X654018Y230044D01*
X654010Y230091D01*
X653976Y230148D01*
X653951Y230208D01*
X653920Y230243D01*
X653895Y230284D01*
X653844Y230326D01*
X653800Y230374D01*
X653758Y230396D01*
X653721Y230425D01*
X653659Y230446D01*
X653600Y230477D01*
X653546Y230485D01*
X653509Y230497D01*
X653469Y230496D01*
X653415Y230504D01*
X649605Y230504D01*
X649540Y230493D01*
X649474Y230491D01*
X649431Y230473D01*
X649384Y230465D01*
X649327Y230431D01*
X649267Y230406D01*
X649232Y230375D01*
X649191Y230350D01*
X649150Y230299D01*
X649101Y230255D01*
X649079Y230213D01*
X649050Y230176D01*
X649029Y230114D01*
X648998Y230055D01*
X648990Y230001D01*
X648978Y229964D01*
X648978Y229961D01*
X648979Y229924D01*
X648971Y229870D01*
X648971Y227330D01*
X648982Y227265D01*
X648984Y227199D01*
X649002Y227156D01*
X649010Y227109D01*
X649044Y227052D01*
X649069Y226992D01*
X649100Y226957D01*
X649125Y226916D01*
X649176Y226875D01*
X649220Y226826D01*
X649262Y226804D01*
X649299Y226775D01*
X649361Y226754D01*
X649420Y226723D01*
X649474Y226715D01*
X649511Y226703D01*
X649551Y226704D01*
X649605Y226696D01*
X653415Y226696D01*
X653480Y226707D01*
G37*
G36*
X394400Y226707D02*
X394400Y226707D01*
X394466Y226709D01*
X394509Y226727D01*
X394556Y226735D01*
X394613Y226769D01*
X394673Y226794D01*
X394708Y226825D01*
X394749Y226850D01*
X394791Y226901D01*
X394839Y226945D01*
X394861Y226987D01*
X394890Y227024D01*
X394911Y227086D01*
X394942Y227145D01*
X394950Y227199D01*
X394962Y227236D01*
X394961Y227276D01*
X394969Y227330D01*
X394969Y229870D01*
X394958Y229935D01*
X394956Y230001D01*
X394938Y230044D01*
X394930Y230091D01*
X394896Y230148D01*
X394871Y230208D01*
X394840Y230243D01*
X394815Y230284D01*
X394764Y230326D01*
X394720Y230374D01*
X394678Y230396D01*
X394641Y230425D01*
X394579Y230446D01*
X394520Y230477D01*
X394466Y230485D01*
X394429Y230497D01*
X394389Y230496D01*
X394335Y230504D01*
X390525Y230504D01*
X390460Y230493D01*
X390394Y230491D01*
X390351Y230473D01*
X390304Y230465D01*
X390247Y230431D01*
X390187Y230406D01*
X390152Y230375D01*
X390111Y230350D01*
X390070Y230299D01*
X390021Y230255D01*
X389999Y230213D01*
X389970Y230176D01*
X389949Y230114D01*
X389918Y230055D01*
X389910Y230001D01*
X389898Y229964D01*
X389898Y229961D01*
X389899Y229924D01*
X389891Y229870D01*
X389891Y227330D01*
X389902Y227265D01*
X389904Y227199D01*
X389922Y227156D01*
X389930Y227109D01*
X389964Y227052D01*
X389989Y226992D01*
X390020Y226957D01*
X390045Y226916D01*
X390096Y226875D01*
X390140Y226826D01*
X390182Y226804D01*
X390219Y226775D01*
X390281Y226754D01*
X390340Y226723D01*
X390394Y226715D01*
X390431Y226703D01*
X390471Y226704D01*
X390525Y226696D01*
X394335Y226696D01*
X394400Y226707D01*
G37*
G36*
X912560Y226707D02*
X912560Y226707D01*
X912626Y226709D01*
X912669Y226727D01*
X912716Y226735D01*
X912773Y226769D01*
X912833Y226794D01*
X912868Y226825D01*
X912909Y226850D01*
X912951Y226901D01*
X912999Y226945D01*
X913021Y226987D01*
X913050Y227024D01*
X913071Y227086D01*
X913102Y227145D01*
X913110Y227199D01*
X913122Y227236D01*
X913121Y227276D01*
X913129Y227330D01*
X913129Y229870D01*
X913118Y229935D01*
X913116Y230001D01*
X913098Y230044D01*
X913090Y230091D01*
X913056Y230148D01*
X913031Y230208D01*
X913000Y230243D01*
X912975Y230284D01*
X912924Y230326D01*
X912880Y230374D01*
X912838Y230396D01*
X912801Y230425D01*
X912739Y230446D01*
X912680Y230477D01*
X912626Y230485D01*
X912589Y230497D01*
X912549Y230496D01*
X912495Y230504D01*
X908685Y230504D01*
X908620Y230493D01*
X908554Y230491D01*
X908511Y230473D01*
X908464Y230465D01*
X908407Y230431D01*
X908347Y230406D01*
X908312Y230375D01*
X908271Y230350D01*
X908230Y230299D01*
X908181Y230255D01*
X908159Y230213D01*
X908130Y230176D01*
X908109Y230114D01*
X908078Y230055D01*
X908070Y230001D01*
X908058Y229964D01*
X908058Y229961D01*
X908059Y229924D01*
X908051Y229870D01*
X908051Y227330D01*
X908062Y227265D01*
X908064Y227199D01*
X908082Y227156D01*
X908090Y227109D01*
X908124Y227052D01*
X908149Y226992D01*
X908180Y226957D01*
X908205Y226916D01*
X908256Y226875D01*
X908300Y226826D01*
X908342Y226804D01*
X908379Y226775D01*
X908441Y226754D01*
X908500Y226723D01*
X908554Y226715D01*
X908591Y226703D01*
X908631Y226704D01*
X908685Y226696D01*
X912495Y226696D01*
X912560Y226707D01*
G37*
G36*
X671260Y10807D02*
X671260Y10807D01*
X671326Y10809D01*
X671369Y10827D01*
X671416Y10835D01*
X671473Y10869D01*
X671533Y10894D01*
X671568Y10925D01*
X671609Y10950D01*
X671651Y11001D01*
X671699Y11045D01*
X671721Y11087D01*
X671750Y11124D01*
X671771Y11186D01*
X671802Y11245D01*
X671810Y11299D01*
X671822Y11336D01*
X671821Y11376D01*
X671829Y11430D01*
X671829Y13970D01*
X671818Y14035D01*
X671816Y14101D01*
X671798Y14144D01*
X671790Y14191D01*
X671756Y14248D01*
X671731Y14308D01*
X671700Y14343D01*
X671675Y14384D01*
X671624Y14426D01*
X671580Y14474D01*
X671538Y14496D01*
X671501Y14525D01*
X671439Y14546D01*
X671380Y14577D01*
X671326Y14585D01*
X671289Y14597D01*
X671249Y14596D01*
X671195Y14604D01*
X667385Y14604D01*
X667320Y14593D01*
X667254Y14591D01*
X667211Y14573D01*
X667164Y14565D01*
X667107Y14531D01*
X667047Y14506D01*
X667012Y14475D01*
X666971Y14450D01*
X666930Y14399D01*
X666881Y14355D01*
X666859Y14313D01*
X666830Y14276D01*
X666809Y14214D01*
X666778Y14155D01*
X666770Y14101D01*
X666758Y14064D01*
X666758Y14061D01*
X666759Y14024D01*
X666751Y13970D01*
X666751Y11430D01*
X666762Y11365D01*
X666764Y11299D01*
X666782Y11256D01*
X666790Y11209D01*
X666824Y11152D01*
X666849Y11092D01*
X666880Y11057D01*
X666905Y11016D01*
X666956Y10975D01*
X667000Y10926D01*
X667042Y10904D01*
X667079Y10875D01*
X667141Y10854D01*
X667200Y10823D01*
X667254Y10815D01*
X667291Y10803D01*
X667331Y10804D01*
X667385Y10796D01*
X671195Y10796D01*
X671260Y10807D01*
G37*
G36*
X930340Y10807D02*
X930340Y10807D01*
X930406Y10809D01*
X930449Y10827D01*
X930496Y10835D01*
X930553Y10869D01*
X930613Y10894D01*
X930648Y10925D01*
X930689Y10950D01*
X930731Y11001D01*
X930779Y11045D01*
X930801Y11087D01*
X930830Y11124D01*
X930851Y11186D01*
X930882Y11245D01*
X930890Y11299D01*
X930902Y11336D01*
X930901Y11376D01*
X930909Y11430D01*
X930909Y13970D01*
X930898Y14035D01*
X930896Y14101D01*
X930878Y14144D01*
X930870Y14191D01*
X930836Y14248D01*
X930811Y14308D01*
X930780Y14343D01*
X930755Y14384D01*
X930704Y14426D01*
X930660Y14474D01*
X930618Y14496D01*
X930581Y14525D01*
X930519Y14546D01*
X930460Y14577D01*
X930406Y14585D01*
X930369Y14597D01*
X930329Y14596D01*
X930275Y14604D01*
X926465Y14604D01*
X926400Y14593D01*
X926334Y14591D01*
X926291Y14573D01*
X926244Y14565D01*
X926187Y14531D01*
X926127Y14506D01*
X926092Y14475D01*
X926051Y14450D01*
X926010Y14399D01*
X925961Y14355D01*
X925939Y14313D01*
X925910Y14276D01*
X925889Y14214D01*
X925858Y14155D01*
X925850Y14101D01*
X925838Y14064D01*
X925838Y14061D01*
X925839Y14024D01*
X925831Y13970D01*
X925831Y11430D01*
X925842Y11365D01*
X925844Y11299D01*
X925862Y11256D01*
X925870Y11209D01*
X925904Y11152D01*
X925929Y11092D01*
X925960Y11057D01*
X925985Y11016D01*
X926036Y10975D01*
X926080Y10926D01*
X926122Y10904D01*
X926159Y10875D01*
X926221Y10854D01*
X926280Y10823D01*
X926334Y10815D01*
X926371Y10803D01*
X926411Y10804D01*
X926465Y10796D01*
X930275Y10796D01*
X930340Y10807D01*
G37*
G36*
X412180Y10807D02*
X412180Y10807D01*
X412246Y10809D01*
X412289Y10827D01*
X412336Y10835D01*
X412393Y10869D01*
X412453Y10894D01*
X412488Y10925D01*
X412529Y10950D01*
X412571Y11001D01*
X412619Y11045D01*
X412641Y11087D01*
X412670Y11124D01*
X412691Y11186D01*
X412722Y11245D01*
X412730Y11299D01*
X412742Y11336D01*
X412741Y11376D01*
X412749Y11430D01*
X412749Y13970D01*
X412738Y14035D01*
X412736Y14101D01*
X412718Y14144D01*
X412710Y14191D01*
X412676Y14248D01*
X412651Y14308D01*
X412620Y14343D01*
X412595Y14384D01*
X412544Y14426D01*
X412500Y14474D01*
X412458Y14496D01*
X412421Y14525D01*
X412359Y14546D01*
X412300Y14577D01*
X412246Y14585D01*
X412209Y14597D01*
X412169Y14596D01*
X412115Y14604D01*
X408305Y14604D01*
X408240Y14593D01*
X408174Y14591D01*
X408131Y14573D01*
X408084Y14565D01*
X408027Y14531D01*
X407967Y14506D01*
X407932Y14475D01*
X407891Y14450D01*
X407850Y14399D01*
X407801Y14355D01*
X407779Y14313D01*
X407750Y14276D01*
X407729Y14214D01*
X407698Y14155D01*
X407690Y14101D01*
X407678Y14064D01*
X407678Y14061D01*
X407679Y14024D01*
X407671Y13970D01*
X407671Y11430D01*
X407682Y11365D01*
X407684Y11299D01*
X407702Y11256D01*
X407710Y11209D01*
X407744Y11152D01*
X407769Y11092D01*
X407800Y11057D01*
X407825Y11016D01*
X407876Y10975D01*
X407920Y10926D01*
X407962Y10904D01*
X407999Y10875D01*
X408061Y10854D01*
X408120Y10823D01*
X408174Y10815D01*
X408211Y10803D01*
X408251Y10804D01*
X408305Y10796D01*
X412115Y10796D01*
X412180Y10807D01*
G37*
G36*
X153100Y10807D02*
X153100Y10807D01*
X153166Y10809D01*
X153209Y10827D01*
X153256Y10835D01*
X153313Y10869D01*
X153373Y10894D01*
X153408Y10925D01*
X153449Y10950D01*
X153491Y11001D01*
X153539Y11045D01*
X153561Y11087D01*
X153590Y11124D01*
X153611Y11186D01*
X153642Y11245D01*
X153650Y11299D01*
X153662Y11336D01*
X153661Y11376D01*
X153669Y11430D01*
X153669Y13970D01*
X153658Y14035D01*
X153656Y14101D01*
X153638Y14144D01*
X153630Y14191D01*
X153596Y14248D01*
X153571Y14308D01*
X153540Y14343D01*
X153515Y14384D01*
X153464Y14426D01*
X153420Y14474D01*
X153378Y14496D01*
X153341Y14525D01*
X153279Y14546D01*
X153220Y14577D01*
X153166Y14585D01*
X153129Y14597D01*
X153089Y14596D01*
X153035Y14604D01*
X149225Y14604D01*
X149160Y14593D01*
X149094Y14591D01*
X149051Y14573D01*
X149004Y14565D01*
X148947Y14531D01*
X148887Y14506D01*
X148852Y14475D01*
X148811Y14450D01*
X148770Y14399D01*
X148721Y14355D01*
X148699Y14313D01*
X148670Y14276D01*
X148649Y14214D01*
X148618Y14155D01*
X148610Y14101D01*
X148598Y14064D01*
X148598Y14061D01*
X148599Y14024D01*
X148591Y13970D01*
X148591Y11430D01*
X148602Y11365D01*
X148604Y11299D01*
X148622Y11256D01*
X148630Y11209D01*
X148664Y11152D01*
X148689Y11092D01*
X148720Y11057D01*
X148745Y11016D01*
X148796Y10975D01*
X148840Y10926D01*
X148882Y10904D01*
X148919Y10875D01*
X148981Y10854D01*
X149040Y10823D01*
X149094Y10815D01*
X149131Y10803D01*
X149171Y10804D01*
X149225Y10796D01*
X153035Y10796D01*
X153100Y10807D01*
G37*
D10*
X25990Y783200D02*
X12110Y783200D01*
X12110Y822080D01*
X25990Y822080D01*
X25990Y783200D01*
X25990Y785712D02*
X12110Y785712D01*
X12110Y788224D02*
X25990Y788224D01*
X25990Y790736D02*
X12110Y790736D01*
X12110Y793248D02*
X25990Y793248D01*
X25990Y795760D02*
X12110Y795760D01*
X12110Y798272D02*
X25990Y798272D01*
X25990Y800784D02*
X12110Y800784D01*
X12110Y803296D02*
X25990Y803296D01*
X25990Y805808D02*
X12110Y805808D01*
X12110Y808320D02*
X25990Y808320D01*
X25990Y810832D02*
X12110Y810832D01*
X12110Y813344D02*
X25990Y813344D01*
X25990Y815856D02*
X12110Y815856D01*
X12110Y818368D02*
X25990Y818368D01*
X25990Y820880D02*
X12110Y820880D01*
X62910Y783200D02*
X76790Y783200D01*
X62910Y783200D02*
X62910Y822080D01*
X76790Y822080D01*
X76790Y783200D01*
X76790Y785712D02*
X62910Y785712D01*
X62910Y788224D02*
X76790Y788224D01*
X76790Y790736D02*
X62910Y790736D01*
X62910Y793248D02*
X76790Y793248D01*
X76790Y795760D02*
X62910Y795760D01*
X62910Y798272D02*
X76790Y798272D01*
X76790Y800784D02*
X62910Y800784D01*
X62910Y803296D02*
X76790Y803296D01*
X76790Y805808D02*
X62910Y805808D01*
X62910Y808320D02*
X76790Y808320D01*
X76790Y810832D02*
X62910Y810832D01*
X62910Y813344D02*
X76790Y813344D01*
X76790Y815856D02*
X62910Y815856D01*
X62910Y818368D02*
X76790Y818368D01*
X76790Y820880D02*
X62910Y820880D01*
X177210Y783200D02*
X191090Y783200D01*
X177210Y783200D02*
X177210Y822080D01*
X191090Y822080D01*
X191090Y783200D01*
X191090Y785712D02*
X177210Y785712D01*
X177210Y788224D02*
X191090Y788224D01*
X191090Y790736D02*
X177210Y790736D01*
X177210Y793248D02*
X191090Y793248D01*
X191090Y795760D02*
X177210Y795760D01*
X177210Y798272D02*
X191090Y798272D01*
X191090Y800784D02*
X177210Y800784D01*
X177210Y803296D02*
X191090Y803296D01*
X191090Y805808D02*
X177210Y805808D01*
X177210Y808320D02*
X191090Y808320D01*
X191090Y810832D02*
X177210Y810832D01*
X177210Y813344D02*
X191090Y813344D01*
X191090Y815856D02*
X177210Y815856D01*
X177210Y818368D02*
X191090Y818368D01*
X191090Y820880D02*
X177210Y820880D01*
X228010Y783200D02*
X241890Y783200D01*
X228010Y783200D02*
X228010Y822080D01*
X241890Y822080D01*
X241890Y783200D01*
X241890Y785712D02*
X228010Y785712D01*
X228010Y788224D02*
X241890Y788224D01*
X241890Y790736D02*
X228010Y790736D01*
X228010Y793248D02*
X241890Y793248D01*
X241890Y795760D02*
X228010Y795760D01*
X228010Y798272D02*
X241890Y798272D01*
X241890Y800784D02*
X228010Y800784D01*
X228010Y803296D02*
X241890Y803296D01*
X241890Y805808D02*
X228010Y805808D01*
X228010Y808320D02*
X241890Y808320D01*
X241890Y810832D02*
X228010Y810832D01*
X228010Y813344D02*
X241890Y813344D01*
X241890Y815856D02*
X228010Y815856D01*
X228010Y818368D02*
X241890Y818368D01*
X241890Y820880D02*
X228010Y820880D01*
D11*
X98100Y49050D03*
X155900Y49050D03*
D12*
X25400Y25400D03*
X228600Y25400D03*
X25400Y736600D03*
X228600Y736600D03*
D13*
X148727Y6848D02*
X143119Y6848D01*
X143119Y18552D01*
X148727Y18552D01*
X148727Y6848D01*
X148727Y9242D02*
X143119Y9242D01*
X143119Y11636D02*
X148727Y11636D01*
X148727Y14030D02*
X143119Y14030D01*
X143119Y16424D02*
X148727Y16424D01*
X153533Y6848D02*
X159141Y6848D01*
X153533Y6848D02*
X153533Y18552D01*
X159141Y18552D01*
X159141Y6848D01*
X159141Y9242D02*
X153533Y9242D01*
X153533Y11636D02*
X159141Y11636D01*
X159141Y14030D02*
X153533Y14030D01*
X153533Y16424D02*
X159141Y16424D01*
D14*
X225300Y365250D03*
X225300Y280250D03*
D15*
X114300Y444500D03*
X139700Y444500D03*
X139700Y469900D03*
X114300Y469900D03*
X50800Y622300D03*
X25400Y622300D03*
X50800Y596900D03*
X25400Y596900D03*
X50800Y647700D03*
X25400Y647700D03*
X38100Y469900D03*
X63500Y444500D03*
X38100Y444500D03*
X63500Y469900D03*
X38100Y419100D03*
X63500Y419100D03*
D13*
X31252Y563489D02*
X31252Y569097D01*
X31252Y563489D02*
X19548Y563489D01*
X19548Y569097D01*
X31252Y569097D01*
X31252Y565883D02*
X19548Y565883D01*
X19548Y568277D02*
X31252Y568277D01*
X31252Y573903D02*
X31252Y579511D01*
X31252Y573903D02*
X19548Y573903D01*
X19548Y579511D01*
X31252Y579511D01*
X31252Y576297D02*
X19548Y576297D01*
X19548Y578691D02*
X31252Y578691D01*
X125339Y254498D02*
X130947Y254498D01*
X125339Y254498D02*
X125339Y266202D01*
X130947Y266202D01*
X130947Y254498D01*
X130947Y256892D02*
X125339Y256892D01*
X125339Y259286D02*
X130947Y259286D01*
X130947Y261680D02*
X125339Y261680D01*
X125339Y264074D02*
X130947Y264074D01*
X135753Y254498D02*
X141361Y254498D01*
X135753Y254498D02*
X135753Y266202D01*
X141361Y266202D01*
X141361Y254498D01*
X141361Y256892D02*
X135753Y256892D01*
X135753Y259286D02*
X141361Y259286D01*
X141361Y261680D02*
X135753Y261680D01*
X135753Y264074D02*
X141361Y264074D01*
X130947Y222748D02*
X125339Y222748D01*
X125339Y234452D01*
X130947Y234452D01*
X130947Y222748D01*
X130947Y225142D02*
X125339Y225142D01*
X125339Y227536D02*
X130947Y227536D01*
X130947Y229930D02*
X125339Y229930D01*
X125339Y232324D02*
X130947Y232324D01*
X135753Y222748D02*
X141361Y222748D01*
X135753Y222748D02*
X135753Y234452D01*
X141361Y234452D01*
X141361Y222748D01*
X141361Y225142D02*
X135753Y225142D01*
X135753Y227536D02*
X141361Y227536D01*
X141361Y229930D02*
X135753Y229930D01*
X135753Y232324D02*
X141361Y232324D01*
D16*
X12700Y762000D03*
X203200Y12700D03*
D17*
X12700Y63500D03*
X12700Y88900D03*
X12700Y114300D03*
X12700Y139700D03*
X12700Y165100D03*
X12700Y190500D03*
X12700Y215900D03*
X12700Y241300D03*
X12700Y266700D03*
X12700Y292100D03*
X12700Y317500D03*
X12700Y342900D03*
D15*
X114300Y419100D03*
D17*
X241300Y63500D03*
X241300Y88900D03*
X241300Y114300D03*
X241300Y139700D03*
D10*
X271190Y783200D02*
X285070Y783200D01*
X271190Y783200D02*
X271190Y822080D01*
X285070Y822080D01*
X285070Y783200D01*
X285070Y785712D02*
X271190Y785712D01*
X271190Y788224D02*
X285070Y788224D01*
X285070Y790736D02*
X271190Y790736D01*
X271190Y793248D02*
X285070Y793248D01*
X285070Y795760D02*
X271190Y795760D01*
X271190Y798272D02*
X285070Y798272D01*
X285070Y800784D02*
X271190Y800784D01*
X271190Y803296D02*
X285070Y803296D01*
X285070Y805808D02*
X271190Y805808D01*
X271190Y808320D02*
X285070Y808320D01*
X285070Y810832D02*
X271190Y810832D01*
X271190Y813344D02*
X285070Y813344D01*
X285070Y815856D02*
X271190Y815856D01*
X271190Y818368D02*
X285070Y818368D01*
X285070Y820880D02*
X271190Y820880D01*
X321990Y783200D02*
X335870Y783200D01*
X321990Y783200D02*
X321990Y822080D01*
X335870Y822080D01*
X335870Y783200D01*
X335870Y785712D02*
X321990Y785712D01*
X321990Y788224D02*
X335870Y788224D01*
X335870Y790736D02*
X321990Y790736D01*
X321990Y793248D02*
X335870Y793248D01*
X335870Y795760D02*
X321990Y795760D01*
X321990Y798272D02*
X335870Y798272D01*
X335870Y800784D02*
X321990Y800784D01*
X321990Y803296D02*
X335870Y803296D01*
X335870Y805808D02*
X321990Y805808D01*
X321990Y808320D02*
X335870Y808320D01*
X335870Y810832D02*
X321990Y810832D01*
X321990Y813344D02*
X335870Y813344D01*
X335870Y815856D02*
X321990Y815856D01*
X321990Y818368D02*
X335870Y818368D01*
X335870Y820880D02*
X321990Y820880D01*
X436290Y783200D02*
X450170Y783200D01*
X436290Y783200D02*
X436290Y822080D01*
X450170Y822080D01*
X450170Y783200D01*
X450170Y785712D02*
X436290Y785712D01*
X436290Y788224D02*
X450170Y788224D01*
X450170Y790736D02*
X436290Y790736D01*
X436290Y793248D02*
X450170Y793248D01*
X450170Y795760D02*
X436290Y795760D01*
X436290Y798272D02*
X450170Y798272D01*
X450170Y800784D02*
X436290Y800784D01*
X436290Y803296D02*
X450170Y803296D01*
X450170Y805808D02*
X436290Y805808D01*
X436290Y808320D02*
X450170Y808320D01*
X450170Y810832D02*
X436290Y810832D01*
X436290Y813344D02*
X450170Y813344D01*
X450170Y815856D02*
X436290Y815856D01*
X436290Y818368D02*
X450170Y818368D01*
X450170Y820880D02*
X436290Y820880D01*
X487090Y783200D02*
X500970Y783200D01*
X487090Y783200D02*
X487090Y822080D01*
X500970Y822080D01*
X500970Y783200D01*
X500970Y785712D02*
X487090Y785712D01*
X487090Y788224D02*
X500970Y788224D01*
X500970Y790736D02*
X487090Y790736D01*
X487090Y793248D02*
X500970Y793248D01*
X500970Y795760D02*
X487090Y795760D01*
X487090Y798272D02*
X500970Y798272D01*
X500970Y800784D02*
X487090Y800784D01*
X487090Y803296D02*
X500970Y803296D01*
X500970Y805808D02*
X487090Y805808D01*
X487090Y808320D02*
X500970Y808320D01*
X500970Y810832D02*
X487090Y810832D01*
X487090Y813344D02*
X500970Y813344D01*
X500970Y815856D02*
X487090Y815856D01*
X487090Y818368D02*
X500970Y818368D01*
X500970Y820880D02*
X487090Y820880D01*
D11*
X357180Y49050D03*
X414980Y49050D03*
D12*
X284480Y25400D03*
X487680Y25400D03*
X284480Y736600D03*
X487680Y736600D03*
D13*
X407807Y6848D02*
X402199Y6848D01*
X402199Y18552D01*
X407807Y18552D01*
X407807Y6848D01*
X407807Y9242D02*
X402199Y9242D01*
X402199Y11636D02*
X407807Y11636D01*
X407807Y14030D02*
X402199Y14030D01*
X402199Y16424D02*
X407807Y16424D01*
X412613Y6848D02*
X418221Y6848D01*
X412613Y6848D02*
X412613Y18552D01*
X418221Y18552D01*
X418221Y6848D01*
X418221Y9242D02*
X412613Y9242D01*
X412613Y11636D02*
X418221Y11636D01*
X418221Y14030D02*
X412613Y14030D01*
X412613Y16424D02*
X418221Y16424D01*
D14*
X484380Y365250D03*
X484380Y280250D03*
D15*
X373380Y444500D03*
X398780Y444500D03*
X398780Y469900D03*
X373380Y469900D03*
X309880Y622300D03*
X284480Y622300D03*
X309880Y596900D03*
X284480Y596900D03*
X309880Y647700D03*
X284480Y647700D03*
X297180Y469900D03*
X322580Y444500D03*
X297180Y444500D03*
X322580Y469900D03*
X297180Y419100D03*
X322580Y419100D03*
D13*
X290332Y563489D02*
X290332Y569097D01*
X290332Y563489D02*
X278628Y563489D01*
X278628Y569097D01*
X290332Y569097D01*
X290332Y565883D02*
X278628Y565883D01*
X278628Y568277D02*
X290332Y568277D01*
X290332Y573903D02*
X290332Y579511D01*
X290332Y573903D02*
X278628Y573903D01*
X278628Y579511D01*
X290332Y579511D01*
X290332Y576297D02*
X278628Y576297D01*
X278628Y578691D02*
X290332Y578691D01*
X384419Y254498D02*
X390027Y254498D01*
X384419Y254498D02*
X384419Y266202D01*
X390027Y266202D01*
X390027Y254498D01*
X390027Y256892D02*
X384419Y256892D01*
X384419Y259286D02*
X390027Y259286D01*
X390027Y261680D02*
X384419Y261680D01*
X384419Y264074D02*
X390027Y264074D01*
X394833Y254498D02*
X400441Y254498D01*
X394833Y254498D02*
X394833Y266202D01*
X400441Y266202D01*
X400441Y254498D01*
X400441Y256892D02*
X394833Y256892D01*
X394833Y259286D02*
X400441Y259286D01*
X400441Y261680D02*
X394833Y261680D01*
X394833Y264074D02*
X400441Y264074D01*
X390027Y222748D02*
X384419Y222748D01*
X384419Y234452D01*
X390027Y234452D01*
X390027Y222748D01*
X390027Y225142D02*
X384419Y225142D01*
X384419Y227536D02*
X390027Y227536D01*
X390027Y229930D02*
X384419Y229930D01*
X384419Y232324D02*
X390027Y232324D01*
X394833Y222748D02*
X400441Y222748D01*
X394833Y222748D02*
X394833Y234452D01*
X400441Y234452D01*
X400441Y222748D01*
X400441Y225142D02*
X394833Y225142D01*
X394833Y227536D02*
X400441Y227536D01*
X400441Y229930D02*
X394833Y229930D01*
X394833Y232324D02*
X400441Y232324D01*
D16*
X271780Y762000D03*
X462280Y12700D03*
D17*
X271780Y63500D03*
X271780Y88900D03*
X271780Y114300D03*
X271780Y139700D03*
X271780Y165100D03*
X271780Y190500D03*
X271780Y215900D03*
X271780Y241300D03*
X271780Y266700D03*
X271780Y292100D03*
X271780Y317500D03*
X271780Y342900D03*
D15*
X373380Y419100D03*
D17*
X500380Y63500D03*
X500380Y88900D03*
X500380Y114300D03*
X500380Y139700D03*
D10*
X530270Y783200D02*
X544150Y783200D01*
X530270Y783200D02*
X530270Y822080D01*
X544150Y822080D01*
X544150Y783200D01*
X544150Y785712D02*
X530270Y785712D01*
X530270Y788224D02*
X544150Y788224D01*
X544150Y790736D02*
X530270Y790736D01*
X530270Y793248D02*
X544150Y793248D01*
X544150Y795760D02*
X530270Y795760D01*
X530270Y798272D02*
X544150Y798272D01*
X544150Y800784D02*
X530270Y800784D01*
X530270Y803296D02*
X544150Y803296D01*
X544150Y805808D02*
X530270Y805808D01*
X530270Y808320D02*
X544150Y808320D01*
X544150Y810832D02*
X530270Y810832D01*
X530270Y813344D02*
X544150Y813344D01*
X544150Y815856D02*
X530270Y815856D01*
X530270Y818368D02*
X544150Y818368D01*
X544150Y820880D02*
X530270Y820880D01*
X581070Y783200D02*
X594950Y783200D01*
X581070Y783200D02*
X581070Y822080D01*
X594950Y822080D01*
X594950Y783200D01*
X594950Y785712D02*
X581070Y785712D01*
X581070Y788224D02*
X594950Y788224D01*
X594950Y790736D02*
X581070Y790736D01*
X581070Y793248D02*
X594950Y793248D01*
X594950Y795760D02*
X581070Y795760D01*
X581070Y798272D02*
X594950Y798272D01*
X594950Y800784D02*
X581070Y800784D01*
X581070Y803296D02*
X594950Y803296D01*
X594950Y805808D02*
X581070Y805808D01*
X581070Y808320D02*
X594950Y808320D01*
X594950Y810832D02*
X581070Y810832D01*
X581070Y813344D02*
X594950Y813344D01*
X594950Y815856D02*
X581070Y815856D01*
X581070Y818368D02*
X594950Y818368D01*
X594950Y820880D02*
X581070Y820880D01*
X695370Y783200D02*
X709250Y783200D01*
X695370Y783200D02*
X695370Y822080D01*
X709250Y822080D01*
X709250Y783200D01*
X709250Y785712D02*
X695370Y785712D01*
X695370Y788224D02*
X709250Y788224D01*
X709250Y790736D02*
X695370Y790736D01*
X695370Y793248D02*
X709250Y793248D01*
X709250Y795760D02*
X695370Y795760D01*
X695370Y798272D02*
X709250Y798272D01*
X709250Y800784D02*
X695370Y800784D01*
X695370Y803296D02*
X709250Y803296D01*
X709250Y805808D02*
X695370Y805808D01*
X695370Y808320D02*
X709250Y808320D01*
X709250Y810832D02*
X695370Y810832D01*
X695370Y813344D02*
X709250Y813344D01*
X709250Y815856D02*
X695370Y815856D01*
X695370Y818368D02*
X709250Y818368D01*
X709250Y820880D02*
X695370Y820880D01*
X746170Y783200D02*
X760050Y783200D01*
X746170Y783200D02*
X746170Y822080D01*
X760050Y822080D01*
X760050Y783200D01*
X760050Y785712D02*
X746170Y785712D01*
X746170Y788224D02*
X760050Y788224D01*
X760050Y790736D02*
X746170Y790736D01*
X746170Y793248D02*
X760050Y793248D01*
X760050Y795760D02*
X746170Y795760D01*
X746170Y798272D02*
X760050Y798272D01*
X760050Y800784D02*
X746170Y800784D01*
X746170Y803296D02*
X760050Y803296D01*
X760050Y805808D02*
X746170Y805808D01*
X746170Y808320D02*
X760050Y808320D01*
X760050Y810832D02*
X746170Y810832D01*
X746170Y813344D02*
X760050Y813344D01*
X760050Y815856D02*
X746170Y815856D01*
X746170Y818368D02*
X760050Y818368D01*
X760050Y820880D02*
X746170Y820880D01*
D11*
X616260Y49050D03*
X674060Y49050D03*
D12*
X543560Y25400D03*
X746760Y25400D03*
X543560Y736600D03*
X746760Y736600D03*
D13*
X666887Y6848D02*
X661279Y6848D01*
X661279Y18552D01*
X666887Y18552D01*
X666887Y6848D01*
X666887Y9242D02*
X661279Y9242D01*
X661279Y11636D02*
X666887Y11636D01*
X666887Y14030D02*
X661279Y14030D01*
X661279Y16424D02*
X666887Y16424D01*
X671693Y6848D02*
X677301Y6848D01*
X671693Y6848D02*
X671693Y18552D01*
X677301Y18552D01*
X677301Y6848D01*
X677301Y9242D02*
X671693Y9242D01*
X671693Y11636D02*
X677301Y11636D01*
X677301Y14030D02*
X671693Y14030D01*
X671693Y16424D02*
X677301Y16424D01*
D14*
X743460Y365250D03*
X743460Y280250D03*
D15*
X632460Y444500D03*
X657860Y444500D03*
X657860Y469900D03*
X632460Y469900D03*
X568960Y622300D03*
X543560Y622300D03*
X568960Y596900D03*
X543560Y596900D03*
X568960Y647700D03*
X543560Y647700D03*
X556260Y469900D03*
X581660Y444500D03*
X556260Y444500D03*
X581660Y469900D03*
X556260Y419100D03*
X581660Y419100D03*
D13*
X549412Y563489D02*
X549412Y569097D01*
X549412Y563489D02*
X537708Y563489D01*
X537708Y569097D01*
X549412Y569097D01*
X549412Y565883D02*
X537708Y565883D01*
X537708Y568277D02*
X549412Y568277D01*
X549412Y573903D02*
X549412Y579511D01*
X549412Y573903D02*
X537708Y573903D01*
X537708Y579511D01*
X549412Y579511D01*
X549412Y576297D02*
X537708Y576297D01*
X537708Y578691D02*
X549412Y578691D01*
X643499Y254498D02*
X649107Y254498D01*
X643499Y254498D02*
X643499Y266202D01*
X649107Y266202D01*
X649107Y254498D01*
X649107Y256892D02*
X643499Y256892D01*
X643499Y259286D02*
X649107Y259286D01*
X649107Y261680D02*
X643499Y261680D01*
X643499Y264074D02*
X649107Y264074D01*
X653913Y254498D02*
X659521Y254498D01*
X653913Y254498D02*
X653913Y266202D01*
X659521Y266202D01*
X659521Y254498D01*
X659521Y256892D02*
X653913Y256892D01*
X653913Y259286D02*
X659521Y259286D01*
X659521Y261680D02*
X653913Y261680D01*
X653913Y264074D02*
X659521Y264074D01*
X649107Y222748D02*
X643499Y222748D01*
X643499Y234452D01*
X649107Y234452D01*
X649107Y222748D01*
X649107Y225142D02*
X643499Y225142D01*
X643499Y227536D02*
X649107Y227536D01*
X649107Y229930D02*
X643499Y229930D01*
X643499Y232324D02*
X649107Y232324D01*
X653913Y222748D02*
X659521Y222748D01*
X653913Y222748D02*
X653913Y234452D01*
X659521Y234452D01*
X659521Y222748D01*
X659521Y225142D02*
X653913Y225142D01*
X653913Y227536D02*
X659521Y227536D01*
X659521Y229930D02*
X653913Y229930D01*
X653913Y232324D02*
X659521Y232324D01*
D16*
X530860Y762000D03*
X721360Y12700D03*
D17*
X530860Y63500D03*
X530860Y88900D03*
X530860Y114300D03*
X530860Y139700D03*
X530860Y165100D03*
X530860Y190500D03*
X530860Y215900D03*
X530860Y241300D03*
X530860Y266700D03*
X530860Y292100D03*
X530860Y317500D03*
X530860Y342900D03*
D15*
X632460Y419100D03*
D17*
X759460Y63500D03*
X759460Y88900D03*
X759460Y114300D03*
X759460Y139700D03*
D10*
X789350Y783200D02*
X803230Y783200D01*
X789350Y783200D02*
X789350Y822080D01*
X803230Y822080D01*
X803230Y783200D01*
X803230Y785712D02*
X789350Y785712D01*
X789350Y788224D02*
X803230Y788224D01*
X803230Y790736D02*
X789350Y790736D01*
X789350Y793248D02*
X803230Y793248D01*
X803230Y795760D02*
X789350Y795760D01*
X789350Y798272D02*
X803230Y798272D01*
X803230Y800784D02*
X789350Y800784D01*
X789350Y803296D02*
X803230Y803296D01*
X803230Y805808D02*
X789350Y805808D01*
X789350Y808320D02*
X803230Y808320D01*
X803230Y810832D02*
X789350Y810832D01*
X789350Y813344D02*
X803230Y813344D01*
X803230Y815856D02*
X789350Y815856D01*
X789350Y818368D02*
X803230Y818368D01*
X803230Y820880D02*
X789350Y820880D01*
X840150Y783200D02*
X854030Y783200D01*
X840150Y783200D02*
X840150Y822080D01*
X854030Y822080D01*
X854030Y783200D01*
X854030Y785712D02*
X840150Y785712D01*
X840150Y788224D02*
X854030Y788224D01*
X854030Y790736D02*
X840150Y790736D01*
X840150Y793248D02*
X854030Y793248D01*
X854030Y795760D02*
X840150Y795760D01*
X840150Y798272D02*
X854030Y798272D01*
X854030Y800784D02*
X840150Y800784D01*
X840150Y803296D02*
X854030Y803296D01*
X854030Y805808D02*
X840150Y805808D01*
X840150Y808320D02*
X854030Y808320D01*
X854030Y810832D02*
X840150Y810832D01*
X840150Y813344D02*
X854030Y813344D01*
X854030Y815856D02*
X840150Y815856D01*
X840150Y818368D02*
X854030Y818368D01*
X854030Y820880D02*
X840150Y820880D01*
X954450Y783200D02*
X968330Y783200D01*
X954450Y783200D02*
X954450Y822080D01*
X968330Y822080D01*
X968330Y783200D01*
X968330Y785712D02*
X954450Y785712D01*
X954450Y788224D02*
X968330Y788224D01*
X968330Y790736D02*
X954450Y790736D01*
X954450Y793248D02*
X968330Y793248D01*
X968330Y795760D02*
X954450Y795760D01*
X954450Y798272D02*
X968330Y798272D01*
X968330Y800784D02*
X954450Y800784D01*
X954450Y803296D02*
X968330Y803296D01*
X968330Y805808D02*
X954450Y805808D01*
X954450Y808320D02*
X968330Y808320D01*
X968330Y810832D02*
X954450Y810832D01*
X954450Y813344D02*
X968330Y813344D01*
X968330Y815856D02*
X954450Y815856D01*
X954450Y818368D02*
X968330Y818368D01*
X968330Y820880D02*
X954450Y820880D01*
X1005250Y783200D02*
X1019130Y783200D01*
X1005250Y783200D02*
X1005250Y822080D01*
X1019130Y822080D01*
X1019130Y783200D01*
X1019130Y785712D02*
X1005250Y785712D01*
X1005250Y788224D02*
X1019130Y788224D01*
X1019130Y790736D02*
X1005250Y790736D01*
X1005250Y793248D02*
X1019130Y793248D01*
X1019130Y795760D02*
X1005250Y795760D01*
X1005250Y798272D02*
X1019130Y798272D01*
X1019130Y800784D02*
X1005250Y800784D01*
X1005250Y803296D02*
X1019130Y803296D01*
X1019130Y805808D02*
X1005250Y805808D01*
X1005250Y808320D02*
X1019130Y808320D01*
X1019130Y810832D02*
X1005250Y810832D01*
X1005250Y813344D02*
X1019130Y813344D01*
X1019130Y815856D02*
X1005250Y815856D01*
X1005250Y818368D02*
X1019130Y818368D01*
X1019130Y820880D02*
X1005250Y820880D01*
D11*
X875340Y49050D03*
X933140Y49050D03*
D12*
X802640Y25400D03*
X1005840Y25400D03*
X802640Y736600D03*
X1005840Y736600D03*
D13*
X925967Y6848D02*
X920359Y6848D01*
X920359Y18552D01*
X925967Y18552D01*
X925967Y6848D01*
X925967Y9242D02*
X920359Y9242D01*
X920359Y11636D02*
X925967Y11636D01*
X925967Y14030D02*
X920359Y14030D01*
X920359Y16424D02*
X925967Y16424D01*
X930773Y6848D02*
X936381Y6848D01*
X930773Y6848D02*
X930773Y18552D01*
X936381Y18552D01*
X936381Y6848D01*
X936381Y9242D02*
X930773Y9242D01*
X930773Y11636D02*
X936381Y11636D01*
X936381Y14030D02*
X930773Y14030D01*
X930773Y16424D02*
X936381Y16424D01*
D14*
X1002540Y365250D03*
X1002540Y280250D03*
D15*
X891540Y444500D03*
X916940Y444500D03*
X916940Y469900D03*
X891540Y469900D03*
X828040Y622300D03*
X802640Y622300D03*
X828040Y596900D03*
X802640Y596900D03*
X828040Y647700D03*
X802640Y647700D03*
X815340Y469900D03*
X840740Y444500D03*
X815340Y444500D03*
X840740Y469900D03*
X815340Y419100D03*
X840740Y419100D03*
D13*
X808492Y563489D02*
X808492Y569097D01*
X808492Y563489D02*
X796788Y563489D01*
X796788Y569097D01*
X808492Y569097D01*
X808492Y565883D02*
X796788Y565883D01*
X796788Y568277D02*
X808492Y568277D01*
X808492Y573903D02*
X808492Y579511D01*
X808492Y573903D02*
X796788Y573903D01*
X796788Y579511D01*
X808492Y579511D01*
X808492Y576297D02*
X796788Y576297D01*
X796788Y578691D02*
X808492Y578691D01*
X902579Y254498D02*
X908187Y254498D01*
X902579Y254498D02*
X902579Y266202D01*
X908187Y266202D01*
X908187Y254498D01*
X908187Y256892D02*
X902579Y256892D01*
X902579Y259286D02*
X908187Y259286D01*
X908187Y261680D02*
X902579Y261680D01*
X902579Y264074D02*
X908187Y264074D01*
X912993Y254498D02*
X918601Y254498D01*
X912993Y254498D02*
X912993Y266202D01*
X918601Y266202D01*
X918601Y254498D01*
X918601Y256892D02*
X912993Y256892D01*
X912993Y259286D02*
X918601Y259286D01*
X918601Y261680D02*
X912993Y261680D01*
X912993Y264074D02*
X918601Y264074D01*
X908187Y222748D02*
X902579Y222748D01*
X902579Y234452D01*
X908187Y234452D01*
X908187Y222748D01*
X908187Y225142D02*
X902579Y225142D01*
X902579Y227536D02*
X908187Y227536D01*
X908187Y229930D02*
X902579Y229930D01*
X902579Y232324D02*
X908187Y232324D01*
X912993Y222748D02*
X918601Y222748D01*
X912993Y222748D02*
X912993Y234452D01*
X918601Y234452D01*
X918601Y222748D01*
X918601Y225142D02*
X912993Y225142D01*
X912993Y227536D02*
X918601Y227536D01*
X918601Y229930D02*
X912993Y229930D01*
X912993Y232324D02*
X918601Y232324D01*
D16*
X789940Y762000D03*
X980440Y12700D03*
D17*
X789940Y63500D03*
X789940Y88900D03*
X789940Y114300D03*
X789940Y139700D03*
X789940Y165100D03*
X789940Y190500D03*
X789940Y215900D03*
X789940Y241300D03*
X789940Y266700D03*
X789940Y292100D03*
X789940Y317500D03*
X789940Y342900D03*
D15*
X891540Y419100D03*
D17*
X1018540Y63500D03*
X1018540Y88900D03*
X1018540Y114300D03*
X1018540Y139700D03*
D10*
X25990Y1634100D02*
X12110Y1634100D01*
X12110Y1672980D01*
X25990Y1672980D01*
X25990Y1634100D01*
X25990Y1636612D02*
X12110Y1636612D01*
X12110Y1639124D02*
X25990Y1639124D01*
X25990Y1641636D02*
X12110Y1641636D01*
X12110Y1644148D02*
X25990Y1644148D01*
X25990Y1646660D02*
X12110Y1646660D01*
X12110Y1649172D02*
X25990Y1649172D01*
X25990Y1651684D02*
X12110Y1651684D01*
X12110Y1654196D02*
X25990Y1654196D01*
X25990Y1656708D02*
X12110Y1656708D01*
X12110Y1659220D02*
X25990Y1659220D01*
X25990Y1661732D02*
X12110Y1661732D01*
X12110Y1664244D02*
X25990Y1664244D01*
X25990Y1666756D02*
X12110Y1666756D01*
X12110Y1669268D02*
X25990Y1669268D01*
X25990Y1671780D02*
X12110Y1671780D01*
X62910Y1634100D02*
X76790Y1634100D01*
X62910Y1634100D02*
X62910Y1672980D01*
X76790Y1672980D01*
X76790Y1634100D01*
X76790Y1636612D02*
X62910Y1636612D01*
X62910Y1639124D02*
X76790Y1639124D01*
X76790Y1641636D02*
X62910Y1641636D01*
X62910Y1644148D02*
X76790Y1644148D01*
X76790Y1646660D02*
X62910Y1646660D01*
X62910Y1649172D02*
X76790Y1649172D01*
X76790Y1651684D02*
X62910Y1651684D01*
X62910Y1654196D02*
X76790Y1654196D01*
X76790Y1656708D02*
X62910Y1656708D01*
X62910Y1659220D02*
X76790Y1659220D01*
X76790Y1661732D02*
X62910Y1661732D01*
X62910Y1664244D02*
X76790Y1664244D01*
X76790Y1666756D02*
X62910Y1666756D01*
X62910Y1669268D02*
X76790Y1669268D01*
X76790Y1671780D02*
X62910Y1671780D01*
X177210Y1634100D02*
X191090Y1634100D01*
X177210Y1634100D02*
X177210Y1672980D01*
X191090Y1672980D01*
X191090Y1634100D01*
X191090Y1636612D02*
X177210Y1636612D01*
X177210Y1639124D02*
X191090Y1639124D01*
X191090Y1641636D02*
X177210Y1641636D01*
X177210Y1644148D02*
X191090Y1644148D01*
X191090Y1646660D02*
X177210Y1646660D01*
X177210Y1649172D02*
X191090Y1649172D01*
X191090Y1651684D02*
X177210Y1651684D01*
X177210Y1654196D02*
X191090Y1654196D01*
X191090Y1656708D02*
X177210Y1656708D01*
X177210Y1659220D02*
X191090Y1659220D01*
X191090Y1661732D02*
X177210Y1661732D01*
X177210Y1664244D02*
X191090Y1664244D01*
X191090Y1666756D02*
X177210Y1666756D01*
X177210Y1669268D02*
X191090Y1669268D01*
X191090Y1671780D02*
X177210Y1671780D01*
X228010Y1634100D02*
X241890Y1634100D01*
X228010Y1634100D02*
X228010Y1672980D01*
X241890Y1672980D01*
X241890Y1634100D01*
X241890Y1636612D02*
X228010Y1636612D01*
X228010Y1639124D02*
X241890Y1639124D01*
X241890Y1641636D02*
X228010Y1641636D01*
X228010Y1644148D02*
X241890Y1644148D01*
X241890Y1646660D02*
X228010Y1646660D01*
X228010Y1649172D02*
X241890Y1649172D01*
X241890Y1651684D02*
X228010Y1651684D01*
X228010Y1654196D02*
X241890Y1654196D01*
X241890Y1656708D02*
X228010Y1656708D01*
X228010Y1659220D02*
X241890Y1659220D01*
X241890Y1661732D02*
X228010Y1661732D01*
X228010Y1664244D02*
X241890Y1664244D01*
X241890Y1666756D02*
X228010Y1666756D01*
X228010Y1669268D02*
X241890Y1669268D01*
X241890Y1671780D02*
X228010Y1671780D01*
D11*
X98100Y899950D03*
X155900Y899950D03*
D12*
X25400Y876300D03*
X228600Y876300D03*
X25400Y1587500D03*
X228600Y1587500D03*
D13*
X148727Y857748D02*
X143119Y857748D01*
X143119Y869452D01*
X148727Y869452D01*
X148727Y857748D01*
X148727Y860142D02*
X143119Y860142D01*
X143119Y862536D02*
X148727Y862536D01*
X148727Y864930D02*
X143119Y864930D01*
X143119Y867324D02*
X148727Y867324D01*
X153533Y857748D02*
X159141Y857748D01*
X153533Y857748D02*
X153533Y869452D01*
X159141Y869452D01*
X159141Y857748D01*
X159141Y860142D02*
X153533Y860142D01*
X153533Y862536D02*
X159141Y862536D01*
X159141Y864930D02*
X153533Y864930D01*
X153533Y867324D02*
X159141Y867324D01*
D14*
X225300Y1216150D03*
X225300Y1131150D03*
D15*
X114300Y1295400D03*
X139700Y1295400D03*
X139700Y1320800D03*
X114300Y1320800D03*
X50800Y1473200D03*
X25400Y1473200D03*
X50800Y1447800D03*
X25400Y1447800D03*
X50800Y1498600D03*
X25400Y1498600D03*
X38100Y1320800D03*
X63500Y1295400D03*
X38100Y1295400D03*
X63500Y1320800D03*
X38100Y1270000D03*
X63500Y1270000D03*
D13*
X31252Y1414389D02*
X31252Y1419997D01*
X31252Y1414389D02*
X19548Y1414389D01*
X19548Y1419997D01*
X31252Y1419997D01*
X31252Y1416783D02*
X19548Y1416783D01*
X19548Y1419177D02*
X31252Y1419177D01*
X31252Y1424803D02*
X31252Y1430411D01*
X31252Y1424803D02*
X19548Y1424803D01*
X19548Y1430411D01*
X31252Y1430411D01*
X31252Y1427197D02*
X19548Y1427197D01*
X19548Y1429591D02*
X31252Y1429591D01*
X125339Y1105398D02*
X130947Y1105398D01*
X125339Y1105398D02*
X125339Y1117102D01*
X130947Y1117102D01*
X130947Y1105398D01*
X130947Y1107792D02*
X125339Y1107792D01*
X125339Y1110186D02*
X130947Y1110186D01*
X130947Y1112580D02*
X125339Y1112580D01*
X125339Y1114974D02*
X130947Y1114974D01*
X135753Y1105398D02*
X141361Y1105398D01*
X135753Y1105398D02*
X135753Y1117102D01*
X141361Y1117102D01*
X141361Y1105398D01*
X141361Y1107792D02*
X135753Y1107792D01*
X135753Y1110186D02*
X141361Y1110186D01*
X141361Y1112580D02*
X135753Y1112580D01*
X135753Y1114974D02*
X141361Y1114974D01*
X130947Y1073648D02*
X125339Y1073648D01*
X125339Y1085352D01*
X130947Y1085352D01*
X130947Y1073648D01*
X130947Y1076042D02*
X125339Y1076042D01*
X125339Y1078436D02*
X130947Y1078436D01*
X130947Y1080830D02*
X125339Y1080830D01*
X125339Y1083224D02*
X130947Y1083224D01*
X135753Y1073648D02*
X141361Y1073648D01*
X135753Y1073648D02*
X135753Y1085352D01*
X141361Y1085352D01*
X141361Y1073648D01*
X141361Y1076042D02*
X135753Y1076042D01*
X135753Y1078436D02*
X141361Y1078436D01*
X141361Y1080830D02*
X135753Y1080830D01*
X135753Y1083224D02*
X141361Y1083224D01*
D16*
X12700Y1612900D03*
X203200Y863600D03*
D17*
X12700Y914400D03*
X12700Y939800D03*
X12700Y965200D03*
X12700Y990600D03*
X12700Y1016000D03*
X12700Y1041400D03*
X12700Y1066800D03*
X12700Y1092200D03*
X12700Y1117600D03*
X12700Y1143000D03*
X12700Y1168400D03*
X12700Y1193800D03*
D15*
X114300Y1270000D03*
D17*
X241300Y914400D03*
X241300Y939800D03*
X241300Y965200D03*
X241300Y990600D03*
D10*
X271190Y1634100D02*
X285070Y1634100D01*
X271190Y1634100D02*
X271190Y1672980D01*
X285070Y1672980D01*
X285070Y1634100D01*
X285070Y1636612D02*
X271190Y1636612D01*
X271190Y1639124D02*
X285070Y1639124D01*
X285070Y1641636D02*
X271190Y1641636D01*
X271190Y1644148D02*
X285070Y1644148D01*
X285070Y1646660D02*
X271190Y1646660D01*
X271190Y1649172D02*
X285070Y1649172D01*
X285070Y1651684D02*
X271190Y1651684D01*
X271190Y1654196D02*
X285070Y1654196D01*
X285070Y1656708D02*
X271190Y1656708D01*
X271190Y1659220D02*
X285070Y1659220D01*
X285070Y1661732D02*
X271190Y1661732D01*
X271190Y1664244D02*
X285070Y1664244D01*
X285070Y1666756D02*
X271190Y1666756D01*
X271190Y1669268D02*
X285070Y1669268D01*
X285070Y1671780D02*
X271190Y1671780D01*
X321990Y1634100D02*
X335870Y1634100D01*
X321990Y1634100D02*
X321990Y1672980D01*
X335870Y1672980D01*
X335870Y1634100D01*
X335870Y1636612D02*
X321990Y1636612D01*
X321990Y1639124D02*
X335870Y1639124D01*
X335870Y1641636D02*
X321990Y1641636D01*
X321990Y1644148D02*
X335870Y1644148D01*
X335870Y1646660D02*
X321990Y1646660D01*
X321990Y1649172D02*
X335870Y1649172D01*
X335870Y1651684D02*
X321990Y1651684D01*
X321990Y1654196D02*
X335870Y1654196D01*
X335870Y1656708D02*
X321990Y1656708D01*
X321990Y1659220D02*
X335870Y1659220D01*
X335870Y1661732D02*
X321990Y1661732D01*
X321990Y1664244D02*
X335870Y1664244D01*
X335870Y1666756D02*
X321990Y1666756D01*
X321990Y1669268D02*
X335870Y1669268D01*
X335870Y1671780D02*
X321990Y1671780D01*
X436290Y1634100D02*
X450170Y1634100D01*
X436290Y1634100D02*
X436290Y1672980D01*
X450170Y1672980D01*
X450170Y1634100D01*
X450170Y1636612D02*
X436290Y1636612D01*
X436290Y1639124D02*
X450170Y1639124D01*
X450170Y1641636D02*
X436290Y1641636D01*
X436290Y1644148D02*
X450170Y1644148D01*
X450170Y1646660D02*
X436290Y1646660D01*
X436290Y1649172D02*
X450170Y1649172D01*
X450170Y1651684D02*
X436290Y1651684D01*
X436290Y1654196D02*
X450170Y1654196D01*
X450170Y1656708D02*
X436290Y1656708D01*
X436290Y1659220D02*
X450170Y1659220D01*
X450170Y1661732D02*
X436290Y1661732D01*
X436290Y1664244D02*
X450170Y1664244D01*
X450170Y1666756D02*
X436290Y1666756D01*
X436290Y1669268D02*
X450170Y1669268D01*
X450170Y1671780D02*
X436290Y1671780D01*
X487090Y1634100D02*
X500970Y1634100D01*
X487090Y1634100D02*
X487090Y1672980D01*
X500970Y1672980D01*
X500970Y1634100D01*
X500970Y1636612D02*
X487090Y1636612D01*
X487090Y1639124D02*
X500970Y1639124D01*
X500970Y1641636D02*
X487090Y1641636D01*
X487090Y1644148D02*
X500970Y1644148D01*
X500970Y1646660D02*
X487090Y1646660D01*
X487090Y1649172D02*
X500970Y1649172D01*
X500970Y1651684D02*
X487090Y1651684D01*
X487090Y1654196D02*
X500970Y1654196D01*
X500970Y1656708D02*
X487090Y1656708D01*
X487090Y1659220D02*
X500970Y1659220D01*
X500970Y1661732D02*
X487090Y1661732D01*
X487090Y1664244D02*
X500970Y1664244D01*
X500970Y1666756D02*
X487090Y1666756D01*
X487090Y1669268D02*
X500970Y1669268D01*
X500970Y1671780D02*
X487090Y1671780D01*
D11*
X357180Y899950D03*
X414980Y899950D03*
D12*
X284480Y876300D03*
X487680Y876300D03*
X284480Y1587500D03*
X487680Y1587500D03*
D13*
X407807Y857748D02*
X402199Y857748D01*
X402199Y869452D01*
X407807Y869452D01*
X407807Y857748D01*
X407807Y860142D02*
X402199Y860142D01*
X402199Y862536D02*
X407807Y862536D01*
X407807Y864930D02*
X402199Y864930D01*
X402199Y867324D02*
X407807Y867324D01*
X412613Y857748D02*
X418221Y857748D01*
X412613Y857748D02*
X412613Y869452D01*
X418221Y869452D01*
X418221Y857748D01*
X418221Y860142D02*
X412613Y860142D01*
X412613Y862536D02*
X418221Y862536D01*
X418221Y864930D02*
X412613Y864930D01*
X412613Y867324D02*
X418221Y867324D01*
D14*
X484380Y1216150D03*
X484380Y1131150D03*
D15*
X373380Y1295400D03*
X398780Y1295400D03*
X398780Y1320800D03*
X373380Y1320800D03*
X309880Y1473200D03*
X284480Y1473200D03*
X309880Y1447800D03*
X284480Y1447800D03*
X309880Y1498600D03*
X284480Y1498600D03*
X297180Y1320800D03*
X322580Y1295400D03*
X297180Y1295400D03*
X322580Y1320800D03*
X297180Y1270000D03*
X322580Y1270000D03*
D13*
X290332Y1414389D02*
X290332Y1419997D01*
X290332Y1414389D02*
X278628Y1414389D01*
X278628Y1419997D01*
X290332Y1419997D01*
X290332Y1416783D02*
X278628Y1416783D01*
X278628Y1419177D02*
X290332Y1419177D01*
X290332Y1424803D02*
X290332Y1430411D01*
X290332Y1424803D02*
X278628Y1424803D01*
X278628Y1430411D01*
X290332Y1430411D01*
X290332Y1427197D02*
X278628Y1427197D01*
X278628Y1429591D02*
X290332Y1429591D01*
X384419Y1105398D02*
X390027Y1105398D01*
X384419Y1105398D02*
X384419Y1117102D01*
X390027Y1117102D01*
X390027Y1105398D01*
X390027Y1107792D02*
X384419Y1107792D01*
X384419Y1110186D02*
X390027Y1110186D01*
X390027Y1112580D02*
X384419Y1112580D01*
X384419Y1114974D02*
X390027Y1114974D01*
X394833Y1105398D02*
X400441Y1105398D01*
X394833Y1105398D02*
X394833Y1117102D01*
X400441Y1117102D01*
X400441Y1105398D01*
X400441Y1107792D02*
X394833Y1107792D01*
X394833Y1110186D02*
X400441Y1110186D01*
X400441Y1112580D02*
X394833Y1112580D01*
X394833Y1114974D02*
X400441Y1114974D01*
X390027Y1073648D02*
X384419Y1073648D01*
X384419Y1085352D01*
X390027Y1085352D01*
X390027Y1073648D01*
X390027Y1076042D02*
X384419Y1076042D01*
X384419Y1078436D02*
X390027Y1078436D01*
X390027Y1080830D02*
X384419Y1080830D01*
X384419Y1083224D02*
X390027Y1083224D01*
X394833Y1073648D02*
X400441Y1073648D01*
X394833Y1073648D02*
X394833Y1085352D01*
X400441Y1085352D01*
X400441Y1073648D01*
X400441Y1076042D02*
X394833Y1076042D01*
X394833Y1078436D02*
X400441Y1078436D01*
X400441Y1080830D02*
X394833Y1080830D01*
X394833Y1083224D02*
X400441Y1083224D01*
D16*
X271780Y1612900D03*
X462280Y863600D03*
D17*
X271780Y914400D03*
X271780Y939800D03*
X271780Y965200D03*
X271780Y990600D03*
X271780Y1016000D03*
X271780Y1041400D03*
X271780Y1066800D03*
X271780Y1092200D03*
X271780Y1117600D03*
X271780Y1143000D03*
X271780Y1168400D03*
X271780Y1193800D03*
D15*
X373380Y1270000D03*
D17*
X500380Y914400D03*
X500380Y939800D03*
X500380Y965200D03*
X500380Y990600D03*
D10*
X530270Y1634100D02*
X544150Y1634100D01*
X530270Y1634100D02*
X530270Y1672980D01*
X544150Y1672980D01*
X544150Y1634100D01*
X544150Y1636612D02*
X530270Y1636612D01*
X530270Y1639124D02*
X544150Y1639124D01*
X544150Y1641636D02*
X530270Y1641636D01*
X530270Y1644148D02*
X544150Y1644148D01*
X544150Y1646660D02*
X530270Y1646660D01*
X530270Y1649172D02*
X544150Y1649172D01*
X544150Y1651684D02*
X530270Y1651684D01*
X530270Y1654196D02*
X544150Y1654196D01*
X544150Y1656708D02*
X530270Y1656708D01*
X530270Y1659220D02*
X544150Y1659220D01*
X544150Y1661732D02*
X530270Y1661732D01*
X530270Y1664244D02*
X544150Y1664244D01*
X544150Y1666756D02*
X530270Y1666756D01*
X530270Y1669268D02*
X544150Y1669268D01*
X544150Y1671780D02*
X530270Y1671780D01*
X581070Y1634100D02*
X594950Y1634100D01*
X581070Y1634100D02*
X581070Y1672980D01*
X594950Y1672980D01*
X594950Y1634100D01*
X594950Y1636612D02*
X581070Y1636612D01*
X581070Y1639124D02*
X594950Y1639124D01*
X594950Y1641636D02*
X581070Y1641636D01*
X581070Y1644148D02*
X594950Y1644148D01*
X594950Y1646660D02*
X581070Y1646660D01*
X581070Y1649172D02*
X594950Y1649172D01*
X594950Y1651684D02*
X581070Y1651684D01*
X581070Y1654196D02*
X594950Y1654196D01*
X594950Y1656708D02*
X581070Y1656708D01*
X581070Y1659220D02*
X594950Y1659220D01*
X594950Y1661732D02*
X581070Y1661732D01*
X581070Y1664244D02*
X594950Y1664244D01*
X594950Y1666756D02*
X581070Y1666756D01*
X581070Y1669268D02*
X594950Y1669268D01*
X594950Y1671780D02*
X581070Y1671780D01*
X695370Y1634100D02*
X709250Y1634100D01*
X695370Y1634100D02*
X695370Y1672980D01*
X709250Y1672980D01*
X709250Y1634100D01*
X709250Y1636612D02*
X695370Y1636612D01*
X695370Y1639124D02*
X709250Y1639124D01*
X709250Y1641636D02*
X695370Y1641636D01*
X695370Y1644148D02*
X709250Y1644148D01*
X709250Y1646660D02*
X695370Y1646660D01*
X695370Y1649172D02*
X709250Y1649172D01*
X709250Y1651684D02*
X695370Y1651684D01*
X695370Y1654196D02*
X709250Y1654196D01*
X709250Y1656708D02*
X695370Y1656708D01*
X695370Y1659220D02*
X709250Y1659220D01*
X709250Y1661732D02*
X695370Y1661732D01*
X695370Y1664244D02*
X709250Y1664244D01*
X709250Y1666756D02*
X695370Y1666756D01*
X695370Y1669268D02*
X709250Y1669268D01*
X709250Y1671780D02*
X695370Y1671780D01*
X746170Y1634100D02*
X760050Y1634100D01*
X746170Y1634100D02*
X746170Y1672980D01*
X760050Y1672980D01*
X760050Y1634100D01*
X760050Y1636612D02*
X746170Y1636612D01*
X746170Y1639124D02*
X760050Y1639124D01*
X760050Y1641636D02*
X746170Y1641636D01*
X746170Y1644148D02*
X760050Y1644148D01*
X760050Y1646660D02*
X746170Y1646660D01*
X746170Y1649172D02*
X760050Y1649172D01*
X760050Y1651684D02*
X746170Y1651684D01*
X746170Y1654196D02*
X760050Y1654196D01*
X760050Y1656708D02*
X746170Y1656708D01*
X746170Y1659220D02*
X760050Y1659220D01*
X760050Y1661732D02*
X746170Y1661732D01*
X746170Y1664244D02*
X760050Y1664244D01*
X760050Y1666756D02*
X746170Y1666756D01*
X746170Y1669268D02*
X760050Y1669268D01*
X760050Y1671780D02*
X746170Y1671780D01*
D11*
X616260Y899950D03*
X674060Y899950D03*
D12*
X543560Y876300D03*
X746760Y876300D03*
X543560Y1587500D03*
X746760Y1587500D03*
D13*
X666887Y857748D02*
X661279Y857748D01*
X661279Y869452D01*
X666887Y869452D01*
X666887Y857748D01*
X666887Y860142D02*
X661279Y860142D01*
X661279Y862536D02*
X666887Y862536D01*
X666887Y864930D02*
X661279Y864930D01*
X661279Y867324D02*
X666887Y867324D01*
X671693Y857748D02*
X677301Y857748D01*
X671693Y857748D02*
X671693Y869452D01*
X677301Y869452D01*
X677301Y857748D01*
X677301Y860142D02*
X671693Y860142D01*
X671693Y862536D02*
X677301Y862536D01*
X677301Y864930D02*
X671693Y864930D01*
X671693Y867324D02*
X677301Y867324D01*
D14*
X743460Y1216150D03*
X743460Y1131150D03*
D15*
X632460Y1295400D03*
X657860Y1295400D03*
X657860Y1320800D03*
X632460Y1320800D03*
X568960Y1473200D03*
X543560Y1473200D03*
X568960Y1447800D03*
X543560Y1447800D03*
X568960Y1498600D03*
X543560Y1498600D03*
X556260Y1320800D03*
X581660Y1295400D03*
X556260Y1295400D03*
X581660Y1320800D03*
X556260Y1270000D03*
X581660Y1270000D03*
D13*
X549412Y1414389D02*
X549412Y1419997D01*
X549412Y1414389D02*
X537708Y1414389D01*
X537708Y1419997D01*
X549412Y1419997D01*
X549412Y1416783D02*
X537708Y1416783D01*
X537708Y1419177D02*
X549412Y1419177D01*
X549412Y1424803D02*
X549412Y1430411D01*
X549412Y1424803D02*
X537708Y1424803D01*
X537708Y1430411D01*
X549412Y1430411D01*
X549412Y1427197D02*
X537708Y1427197D01*
X537708Y1429591D02*
X549412Y1429591D01*
X643499Y1105398D02*
X649107Y1105398D01*
X643499Y1105398D02*
X643499Y1117102D01*
X649107Y1117102D01*
X649107Y1105398D01*
X649107Y1107792D02*
X643499Y1107792D01*
X643499Y1110186D02*
X649107Y1110186D01*
X649107Y1112580D02*
X643499Y1112580D01*
X643499Y1114974D02*
X649107Y1114974D01*
X653913Y1105398D02*
X659521Y1105398D01*
X653913Y1105398D02*
X653913Y1117102D01*
X659521Y1117102D01*
X659521Y1105398D01*
X659521Y1107792D02*
X653913Y1107792D01*
X653913Y1110186D02*
X659521Y1110186D01*
X659521Y1112580D02*
X653913Y1112580D01*
X653913Y1114974D02*
X659521Y1114974D01*
X649107Y1073648D02*
X643499Y1073648D01*
X643499Y1085352D01*
X649107Y1085352D01*
X649107Y1073648D01*
X649107Y1076042D02*
X643499Y1076042D01*
X643499Y1078436D02*
X649107Y1078436D01*
X649107Y1080830D02*
X643499Y1080830D01*
X643499Y1083224D02*
X649107Y1083224D01*
X653913Y1073648D02*
X659521Y1073648D01*
X653913Y1073648D02*
X653913Y1085352D01*
X659521Y1085352D01*
X659521Y1073648D01*
X659521Y1076042D02*
X653913Y1076042D01*
X653913Y1078436D02*
X659521Y1078436D01*
X659521Y1080830D02*
X653913Y1080830D01*
X653913Y1083224D02*
X659521Y1083224D01*
D16*
X530860Y1612900D03*
X721360Y863600D03*
D17*
X530860Y914400D03*
X530860Y939800D03*
X530860Y965200D03*
X530860Y990600D03*
X530860Y1016000D03*
X530860Y1041400D03*
X530860Y1066800D03*
X530860Y1092200D03*
X530860Y1117600D03*
X530860Y1143000D03*
X530860Y1168400D03*
X530860Y1193800D03*
D15*
X632460Y1270000D03*
D17*
X759460Y914400D03*
X759460Y939800D03*
X759460Y965200D03*
X759460Y990600D03*
D10*
X789350Y1634100D02*
X803230Y1634100D01*
X789350Y1634100D02*
X789350Y1672980D01*
X803230Y1672980D01*
X803230Y1634100D01*
X803230Y1636612D02*
X789350Y1636612D01*
X789350Y1639124D02*
X803230Y1639124D01*
X803230Y1641636D02*
X789350Y1641636D01*
X789350Y1644148D02*
X803230Y1644148D01*
X803230Y1646660D02*
X789350Y1646660D01*
X789350Y1649172D02*
X803230Y1649172D01*
X803230Y1651684D02*
X789350Y1651684D01*
X789350Y1654196D02*
X803230Y1654196D01*
X803230Y1656708D02*
X789350Y1656708D01*
X789350Y1659220D02*
X803230Y1659220D01*
X803230Y1661732D02*
X789350Y1661732D01*
X789350Y1664244D02*
X803230Y1664244D01*
X803230Y1666756D02*
X789350Y1666756D01*
X789350Y1669268D02*
X803230Y1669268D01*
X803230Y1671780D02*
X789350Y1671780D01*
X840150Y1634100D02*
X854030Y1634100D01*
X840150Y1634100D02*
X840150Y1672980D01*
X854030Y1672980D01*
X854030Y1634100D01*
X854030Y1636612D02*
X840150Y1636612D01*
X840150Y1639124D02*
X854030Y1639124D01*
X854030Y1641636D02*
X840150Y1641636D01*
X840150Y1644148D02*
X854030Y1644148D01*
X854030Y1646660D02*
X840150Y1646660D01*
X840150Y1649172D02*
X854030Y1649172D01*
X854030Y1651684D02*
X840150Y1651684D01*
X840150Y1654196D02*
X854030Y1654196D01*
X854030Y1656708D02*
X840150Y1656708D01*
X840150Y1659220D02*
X854030Y1659220D01*
X854030Y1661732D02*
X840150Y1661732D01*
X840150Y1664244D02*
X854030Y1664244D01*
X854030Y1666756D02*
X840150Y1666756D01*
X840150Y1669268D02*
X854030Y1669268D01*
X854030Y1671780D02*
X840150Y1671780D01*
X954450Y1634100D02*
X968330Y1634100D01*
X954450Y1634100D02*
X954450Y1672980D01*
X968330Y1672980D01*
X968330Y1634100D01*
X968330Y1636612D02*
X954450Y1636612D01*
X954450Y1639124D02*
X968330Y1639124D01*
X968330Y1641636D02*
X954450Y1641636D01*
X954450Y1644148D02*
X968330Y1644148D01*
X968330Y1646660D02*
X954450Y1646660D01*
X954450Y1649172D02*
X968330Y1649172D01*
X968330Y1651684D02*
X954450Y1651684D01*
X954450Y1654196D02*
X968330Y1654196D01*
X968330Y1656708D02*
X954450Y1656708D01*
X954450Y1659220D02*
X968330Y1659220D01*
X968330Y1661732D02*
X954450Y1661732D01*
X954450Y1664244D02*
X968330Y1664244D01*
X968330Y1666756D02*
X954450Y1666756D01*
X954450Y1669268D02*
X968330Y1669268D01*
X968330Y1671780D02*
X954450Y1671780D01*
X1005250Y1634100D02*
X1019130Y1634100D01*
X1005250Y1634100D02*
X1005250Y1672980D01*
X1019130Y1672980D01*
X1019130Y1634100D01*
X1019130Y1636612D02*
X1005250Y1636612D01*
X1005250Y1639124D02*
X1019130Y1639124D01*
X1019130Y1641636D02*
X1005250Y1641636D01*
X1005250Y1644148D02*
X1019130Y1644148D01*
X1019130Y1646660D02*
X1005250Y1646660D01*
X1005250Y1649172D02*
X1019130Y1649172D01*
X1019130Y1651684D02*
X1005250Y1651684D01*
X1005250Y1654196D02*
X1019130Y1654196D01*
X1019130Y1656708D02*
X1005250Y1656708D01*
X1005250Y1659220D02*
X1019130Y1659220D01*
X1019130Y1661732D02*
X1005250Y1661732D01*
X1005250Y1664244D02*
X1019130Y1664244D01*
X1019130Y1666756D02*
X1005250Y1666756D01*
X1005250Y1669268D02*
X1019130Y1669268D01*
X1019130Y1671780D02*
X1005250Y1671780D01*
D11*
X875340Y899950D03*
X933140Y899950D03*
D12*
X802640Y876300D03*
X1005840Y876300D03*
X802640Y1587500D03*
X1005840Y1587500D03*
D13*
X925967Y857748D02*
X920359Y857748D01*
X920359Y869452D01*
X925967Y869452D01*
X925967Y857748D01*
X925967Y860142D02*
X920359Y860142D01*
X920359Y862536D02*
X925967Y862536D01*
X925967Y864930D02*
X920359Y864930D01*
X920359Y867324D02*
X925967Y867324D01*
X930773Y857748D02*
X936381Y857748D01*
X930773Y857748D02*
X930773Y869452D01*
X936381Y869452D01*
X936381Y857748D01*
X936381Y860142D02*
X930773Y860142D01*
X930773Y862536D02*
X936381Y862536D01*
X936381Y864930D02*
X930773Y864930D01*
X930773Y867324D02*
X936381Y867324D01*
D14*
X1002540Y1216150D03*
X1002540Y1131150D03*
D15*
X891540Y1295400D03*
X916940Y1295400D03*
X916940Y1320800D03*
X891540Y1320800D03*
X828040Y1473200D03*
X802640Y1473200D03*
X828040Y1447800D03*
X802640Y1447800D03*
X828040Y1498600D03*
X802640Y1498600D03*
X815340Y1320800D03*
X840740Y1295400D03*
X815340Y1295400D03*
X840740Y1320800D03*
X815340Y1270000D03*
X840740Y1270000D03*
D13*
X808492Y1414389D02*
X808492Y1419997D01*
X808492Y1414389D02*
X796788Y1414389D01*
X796788Y1419997D01*
X808492Y1419997D01*
X808492Y1416783D02*
X796788Y1416783D01*
X796788Y1419177D02*
X808492Y1419177D01*
X808492Y1424803D02*
X808492Y1430411D01*
X808492Y1424803D02*
X796788Y1424803D01*
X796788Y1430411D01*
X808492Y1430411D01*
X808492Y1427197D02*
X796788Y1427197D01*
X796788Y1429591D02*
X808492Y1429591D01*
X902579Y1105398D02*
X908187Y1105398D01*
X902579Y1105398D02*
X902579Y1117102D01*
X908187Y1117102D01*
X908187Y1105398D01*
X908187Y1107792D02*
X902579Y1107792D01*
X902579Y1110186D02*
X908187Y1110186D01*
X908187Y1112580D02*
X902579Y1112580D01*
X902579Y1114974D02*
X908187Y1114974D01*
X912993Y1105398D02*
X918601Y1105398D01*
X912993Y1105398D02*
X912993Y1117102D01*
X918601Y1117102D01*
X918601Y1105398D01*
X918601Y1107792D02*
X912993Y1107792D01*
X912993Y1110186D02*
X918601Y1110186D01*
X918601Y1112580D02*
X912993Y1112580D01*
X912993Y1114974D02*
X918601Y1114974D01*
X908187Y1073648D02*
X902579Y1073648D01*
X902579Y1085352D01*
X908187Y1085352D01*
X908187Y1073648D01*
X908187Y1076042D02*
X902579Y1076042D01*
X902579Y1078436D02*
X908187Y1078436D01*
X908187Y1080830D02*
X902579Y1080830D01*
X902579Y1083224D02*
X908187Y1083224D01*
X912993Y1073648D02*
X918601Y1073648D01*
X912993Y1073648D02*
X912993Y1085352D01*
X918601Y1085352D01*
X918601Y1073648D01*
X918601Y1076042D02*
X912993Y1076042D01*
X912993Y1078436D02*
X918601Y1078436D01*
X918601Y1080830D02*
X912993Y1080830D01*
X912993Y1083224D02*
X918601Y1083224D01*
D16*
X789940Y1612900D03*
X980440Y863600D03*
D17*
X789940Y914400D03*
X789940Y939800D03*
X789940Y965200D03*
X789940Y990600D03*
X789940Y1016000D03*
X789940Y1041400D03*
X789940Y1066800D03*
X789940Y1092200D03*
X789940Y1117600D03*
X789940Y1143000D03*
X789940Y1168400D03*
X789940Y1193800D03*
D15*
X891540Y1270000D03*
D17*
X1018540Y914400D03*
X1018540Y939800D03*
X1018540Y965200D03*
X1018540Y990600D03*
D16*
X-26238Y1670050D03*
X1057478Y1670050D03*
D18*
X-35293Y63500D02*
X-35290Y63722D01*
X-35282Y63944D01*
X-35268Y64166D01*
X-35249Y64388D01*
X-35225Y64608D01*
X-35195Y64829D01*
X-35160Y65048D01*
X-35119Y65267D01*
X-35073Y65484D01*
X-35022Y65700D01*
X-34965Y65915D01*
X-34903Y66129D01*
X-34836Y66340D01*
X-34764Y66551D01*
X-34686Y66759D01*
X-34604Y66965D01*
X-34516Y67169D01*
X-34424Y67372D01*
X-34326Y67571D01*
X-34224Y67768D01*
X-34117Y67963D01*
X-34005Y68155D01*
X-33888Y68344D01*
X-33767Y68531D01*
X-33641Y68714D01*
X-33511Y68894D01*
X-33376Y69071D01*
X-33238Y69244D01*
X-33095Y69414D01*
X-32947Y69581D01*
X-32796Y69744D01*
X-32641Y69903D01*
X-32482Y70058D01*
X-32319Y70209D01*
X-32152Y70357D01*
X-31982Y70500D01*
X-31809Y70638D01*
X-31632Y70773D01*
X-31452Y70903D01*
X-31269Y71029D01*
X-31082Y71150D01*
X-30893Y71267D01*
X-30701Y71379D01*
X-30506Y71486D01*
X-30309Y71588D01*
X-30110Y71686D01*
X-29907Y71778D01*
X-29703Y71866D01*
X-29497Y71948D01*
X-29289Y72026D01*
X-29078Y72098D01*
X-28867Y72165D01*
X-28653Y72227D01*
X-28438Y72284D01*
X-28222Y72335D01*
X-28005Y72381D01*
X-27786Y72422D01*
X-27567Y72457D01*
X-27346Y72487D01*
X-27126Y72511D01*
X-26904Y72530D01*
X-26682Y72544D01*
X-26460Y72552D01*
X-26238Y72555D01*
X-26016Y72552D01*
X-25794Y72544D01*
X-25572Y72530D01*
X-25350Y72511D01*
X-25130Y72487D01*
X-24909Y72457D01*
X-24690Y72422D01*
X-24471Y72381D01*
X-24254Y72335D01*
X-24038Y72284D01*
X-23823Y72227D01*
X-23609Y72165D01*
X-23398Y72098D01*
X-23187Y72026D01*
X-22979Y71948D01*
X-22773Y71866D01*
X-22569Y71778D01*
X-22366Y71686D01*
X-22167Y71588D01*
X-21970Y71486D01*
X-21775Y71379D01*
X-21583Y71267D01*
X-21394Y71150D01*
X-21207Y71029D01*
X-21024Y70903D01*
X-20844Y70773D01*
X-20667Y70638D01*
X-20494Y70500D01*
X-20324Y70357D01*
X-20157Y70209D01*
X-19994Y70058D01*
X-19835Y69903D01*
X-19680Y69744D01*
X-19529Y69581D01*
X-19381Y69414D01*
X-19238Y69244D01*
X-19100Y69071D01*
X-18965Y68894D01*
X-18835Y68714D01*
X-18709Y68531D01*
X-18588Y68344D01*
X-18471Y68155D01*
X-18359Y67963D01*
X-18252Y67768D01*
X-18150Y67571D01*
X-18052Y67372D01*
X-17960Y67169D01*
X-17872Y66965D01*
X-17790Y66759D01*
X-17712Y66551D01*
X-17640Y66340D01*
X-17573Y66129D01*
X-17511Y65915D01*
X-17454Y65700D01*
X-17403Y65484D01*
X-17357Y65267D01*
X-17316Y65048D01*
X-17281Y64829D01*
X-17251Y64608D01*
X-17227Y64388D01*
X-17208Y64166D01*
X-17194Y63944D01*
X-17186Y63722D01*
X-17183Y63500D01*
X-17186Y63278D01*
X-17194Y63056D01*
X-17208Y62834D01*
X-17227Y62612D01*
X-17251Y62392D01*
X-17281Y62171D01*
X-17316Y61952D01*
X-17357Y61733D01*
X-17403Y61516D01*
X-17454Y61300D01*
X-17511Y61085D01*
X-17573Y60871D01*
X-17640Y60660D01*
X-17712Y60449D01*
X-17790Y60241D01*
X-17872Y60035D01*
X-17960Y59831D01*
X-18052Y59628D01*
X-18150Y59429D01*
X-18252Y59232D01*
X-18359Y59037D01*
X-18471Y58845D01*
X-18588Y58656D01*
X-18709Y58469D01*
X-18835Y58286D01*
X-18965Y58106D01*
X-19100Y57929D01*
X-19238Y57756D01*
X-19381Y57586D01*
X-19529Y57419D01*
X-19680Y57256D01*
X-19835Y57097D01*
X-19994Y56942D01*
X-20157Y56791D01*
X-20324Y56643D01*
X-20494Y56500D01*
X-20667Y56362D01*
X-20844Y56227D01*
X-21024Y56097D01*
X-21207Y55971D01*
X-21394Y55850D01*
X-21583Y55733D01*
X-21775Y55621D01*
X-21970Y55514D01*
X-22167Y55412D01*
X-22366Y55314D01*
X-22569Y55222D01*
X-22773Y55134D01*
X-22979Y55052D01*
X-23187Y54974D01*
X-23398Y54902D01*
X-23609Y54835D01*
X-23823Y54773D01*
X-24038Y54716D01*
X-24254Y54665D01*
X-24471Y54619D01*
X-24690Y54578D01*
X-24909Y54543D01*
X-25130Y54513D01*
X-25350Y54489D01*
X-25572Y54470D01*
X-25794Y54456D01*
X-26016Y54448D01*
X-26238Y54445D01*
X-26460Y54448D01*
X-26682Y54456D01*
X-26904Y54470D01*
X-27126Y54489D01*
X-27346Y54513D01*
X-27567Y54543D01*
X-27786Y54578D01*
X-28005Y54619D01*
X-28222Y54665D01*
X-28438Y54716D01*
X-28653Y54773D01*
X-28867Y54835D01*
X-29078Y54902D01*
X-29289Y54974D01*
X-29497Y55052D01*
X-29703Y55134D01*
X-29907Y55222D01*
X-30110Y55314D01*
X-30309Y55412D01*
X-30506Y55514D01*
X-30701Y55621D01*
X-30893Y55733D01*
X-31082Y55850D01*
X-31269Y55971D01*
X-31452Y56097D01*
X-31632Y56227D01*
X-31809Y56362D01*
X-31982Y56500D01*
X-32152Y56643D01*
X-32319Y56791D01*
X-32482Y56942D01*
X-32641Y57097D01*
X-32796Y57256D01*
X-32947Y57419D01*
X-33095Y57586D01*
X-33238Y57756D01*
X-33376Y57929D01*
X-33511Y58106D01*
X-33641Y58286D01*
X-33767Y58469D01*
X-33888Y58656D01*
X-34005Y58845D01*
X-34117Y59037D01*
X-34224Y59232D01*
X-34326Y59429D01*
X-34424Y59628D01*
X-34516Y59831D01*
X-34604Y60035D01*
X-34686Y60241D01*
X-34764Y60449D01*
X-34836Y60660D01*
X-34903Y60871D01*
X-34965Y61085D01*
X-35022Y61300D01*
X-35073Y61516D01*
X-35119Y61733D01*
X-35160Y61952D01*
X-35195Y62171D01*
X-35225Y62392D01*
X-35249Y62612D01*
X-35268Y62834D01*
X-35282Y63056D01*
X-35290Y63278D01*
X-35293Y63500D01*
D19*
X-26238Y63500D03*
M02*
